<?xml version="1.0" standalone="no"?>
<!DOCTYPE svg PUBLIC "-//W3C//DTD SVG 1.1//EN" "http://www.w3.org/Graphics/SVG/1.1/DTD/svg11.dtd" >
<svg xmlns="http://www.w3.org/2000/svg" xmlns:xlink="http://www.w3.org/1999/xlink" version="1.1">
<metadata>
Created by FontForge 20161116 at Tue May 18 17:53:57 2010
 By Jimmy Wärting
Copyright (c) 2002 by studio kmzero. All rights reserved.
</metadata>
<defs>
<font id="TargaMS" horiz-adv-x="500" >
  <font-face 
    font-family="Targa MS"
    font-weight="400"
    font-stretch="normal"
    units-per-em="1000"
    panose-1="2 0 5 9 0 0 0 2 0 3"
    ascent="800"
    descent="-200"
    x-height="550"
    cap-height="800"
    bbox="-263 -234 764 1103"
    underline-thickness="20"
    underline-position="-143"
    unicode-range="U+0020-2122"
  />
<missing-glyph 
d="M62 0v800h375v-800h-375zM124 63h250v675h-250v-675z" />
    <glyph glyph-name=".notdef" 
d="M62 0v800h375v-800h-375zM124 63h250v675h-250v-675z" />
    <glyph glyph-name="two" unicode="2" 
d="M47 100q76 115 145.5 223.5t135.5 213.5q23 35 23 63q0 42 -29 71t-71 29q-39 0 -67.5 -26t-32.5 -65q-1 -10 -11 -10h-80q-10 0 -10 10q5 81 62 135q59 56 139 56q44 0 78.5 -15.5t62.5 -43.5q54 -55 59 -131q2 -67 -52 -146l-239 -364h280q10 0 10 -10v-80
q0 -10 -10 -10h-380q-13 0 -13 11v89z" />
    <glyph glyph-name="three" unicode="3" 
d="M239 366l-1 70q0 13 16 15q47 7 78.5 42t31.5 82q0 53 -37.5 89.5t-83.5 36t-74.5 -26.5t-31.5 -65q-1 -10 -11 -10h-80q-10 0 -10 10q4 80 67 135t135 56q94 0 160 -66t66 -159q0 -107 -84 -175q84 -68 84 -175q0 -93 -67.5 -159t-154 -66.5t-144.5 55t-62 135.5
q0 10 10 10h80q10 0 11 -10q3 -38 31.5 -64t67.5 -26q55 0 91.5 36.5t36.5 88.5q0 47 -31.5 82t-77.5 42q-16 2 -16 17z" />
    <glyph glyph-name="four" unicode="4" 
d="M452 10q0 -10 -10 -10h-80q-10 0 -10 10v98h-293q-11 0 -6 10l284 670q5 12 15 12h90q10 0 10 -10v-780zM352 583l-151 -375h151v375z" />
    <glyph glyph-name="five" unicode="5" 
d="M141 358h-81q-10 0 -10 10v422q0 10 10 10h380q10 0 10 -10v-80q0 -10 -10 -10h-290v-150q0 -22 19 -14q43 17 81 17q78 0 139 -57t61 -136v-172q-4 -80 -62 -133.5t-138 -53.5q-83 0 -141.5 54t-58.5 136q0 11 9 11h80q6 0 9 -5q1 -2 1 -4q0 -41 30 -67.5t71 -26.5
q39 0 67.5 26t32.5 64v171q0 43 -29.5 67.5t-71.5 24.5q-99 0 -99 -84q0 -10 -9 -10z" />
    <glyph glyph-name="six" unicode="6" 
d="M450 188q0 -79 -59.5 -133t-140.5 -54q-83 0 -141.5 54t-58.5 136v419q-1 77 58.5 133.5t141.5 56.5q80 0 138 -55.5t62 -134.5q0 -10 -10 -10h-80q-10 0 -11 10q-4 38 -32.5 64t-66.5 26q-45 0 -72.5 -27t-27.5 -65v-1v-134q46 26 100 26q79 0 139.5 -51t60.5 -142v-118
zM352 312q-1 42 -30.5 64t-72.5 22q-99 0 -100 -90v-120q0 -38 30.5 -63.5t70.5 -25.5t71 26t31 63q1 17 0 124z" />
    <glyph glyph-name="seven" unicode="7" 
d="M443 800q10 0 6 -10l-283 -782q-3 -10 -11 -10h-99q-10 0 -6 10l251 692h-242q-10 0 -10 10v80q0 10 10 10h384z" />
    <glyph glyph-name="eight" unicode="8" 
d="M349 309q0 36 -30.5 63t-68.5 27q-46 0 -73 -25t-28 -68v-114q0 -46 30 -69.5t71 -23.5q38 0 69 24.5t31 66.5v0zM149 601q0 -49 30.5 -75.5t69.5 -26.5q40 0 70 26.5t28 74.5t-30.5 74t-67.5 26t-68.5 -26t-31.5 -73zM450 189q0 -79 -59.5 -134.5t-140.5 -55.5
q-77 0 -139 56t-62 132v119q0 87 68 143q-64 56 -64 148t58 147.5t138 55.5t140.5 -55.5t59 -148t-66.5 -146.5q69 -56 68 -142v-119z" />
    <glyph glyph-name="nine" unicode="9" 
d="M50 615q0 78 59.5 131.5t140.5 53.5q80 0 140 -56t60 -134v-419q0 -79 -59 -134.5t-141 -55.5q-80 0 -140 56.5t-60 133.5q0 10 10 10h80q9 0 10 -10q0 -38 30.5 -64t69.5 -26q38 0 69 26t31 64v137q-46 -26 -100 -26q-80 0 -138 55t-62 134v124zM349 610q-1 36 -31 63
t-68 27q-39 0 -69.5 -27t-30.5 -67v-114q1 -41 28.5 -67t71.5 -26q38 0 69 26.5t31 63.5z" />
    <glyph glyph-name="colon" unicode=":" 
d="M175 475q0 31 22 53t53 22t53 -22t22 -53t-22 -53t-53 -22t-53 22t-22 53zM175 74q0 32 22 54t53 22t53 -22t22 -54q0 -31 -22 -53t-53 -22t-53 22t-22 53z" />
    <glyph glyph-name="semicolon" unicode=";" 
d="M200 475q0 31 22 53t53 22t53 -22t22 -53t-22 -53t-53 -22t-53 22t-22 53zM268 -91l65 180q3 10 -7 10h-95q-10 0 -13 -10l-65 -180q-4 -10 6 -10h95q10 0 14 10z" />
    <glyph glyph-name="at" unicode="@" 
d="M50 609q0 81 54.5 136t144.5 56q81 0 140.5 -55.5t59.5 -137.5l1 -398q0 -10 -10 -10q-80 4 -135 62t-55 138q0 55 27 101t72 72v36q0 40 -30.5 65.5t-69.5 25.5q-40 0 -69.5 -25.5t-29.5 -65.5v-432q0 -29 26 -51t64 -26q10 -1 10 -11v-80q0 -10 -10 -9
q-79 0 -134.5 50.5t-55.5 124.5v434z" />
    <glyph glyph-name="A" unicode="A" 
d="M201 200h100q11 0 9 11l-50 257q-2 7 -10 7t-9 -7l-50 -257q-1 -11 10 -11zM333 93q-2 7 -9 7h-147q-7 0 -9 -7l-16 -83q-2 -10 -11 -10h-84q-9 0 -6 13l151 779q2 9 10 9h77q8 0 10 -9l151 -779q2 -13 -7 -13h-83q-9 0 -11 10z" />
    <glyph glyph-name="B" unicode="B" 
d="M225 800q93 0 159 -66t66 -159q0 -107 -84 -175q84 -68 84 -175q0 -93 -66 -159t-159 -66h-165q-10 0 -10 10v780q0 10 10 10h165zM160 700q-10 0 -10 -10v-230q0 -10 10 -10h65q52 0 88.5 36.5t36.5 88.5t-36.5 88.5t-88.5 36.5h-65zM160 350q-10 0 -10 -10v-230
q0 -10 10 -10h65q57 0 91 36.5t34 88.5t-36.5 88.5t-88.5 36.5h-65z" />
    <glyph glyph-name="C" unicode="C" 
d="M250 100q38 0 66.5 26t32.5 64q1 10 11 10h80q10 0 10 -10q-4 -80 -62 -135t-138 -55q-81 0 -140.5 54t-59.5 136v420q-1 79 59.5 134.5t140.5 55.5t138 -55.5t62 -134.5q0 -10 -10 -10h-80q-10 0 -11 10q-4 38 -32.5 64t-66.5 26q-41 0 -70.5 -25.5t-29.5 -66.5v-418
q0 -35 27.5 -62.5t72.5 -27.5z" />
    <glyph glyph-name="D" unicode="D" 
d="M451 193q0 -80 -60.5 -136.5t-140.5 -56.5h-191q-10 0 -10 10v778q0 10 10 10h191q82 2 141.5 -56t59.5 -139v-410zM249 100q42 0 71.5 29.5t30.5 70.5v400q-1 41 -30.5 70.5t-71.5 29.5h-90q-9 0 -10 -8v-582q0 -9 7 -10h93z" />
    <glyph glyph-name="E" unicode="E" 
d="M149 450h240q10 0 10 -10v-80q0 -10 -10 -10h-240v-250h292q10 0 10 -10v-80q0 -10 -10 -10h-382q-10 0 -10 10v778q0 10 10 10h382q10 0 10 -10v-78q0 -10 -10 -10h-292v-250z" />
    <glyph glyph-name="F" unicode="F" 
d="M59 798h382q10 0 10 -10v-78q0 -10 -10 -10h-292v-250h240q10 0 10 -10v-80q0 -10 -10 -10h-240v-340q0 -10 -10 -10h-80q-10 0 -10 10v778q0 10 10 10z" />
    <glyph glyph-name="G" unicode="G" 
d="M340 200h-80q-10 0 -10 10v80q0 10 10 10h180q10 0 10 -10v-94q0 -80 -60 -138t-140 -58t-140 55t-60 135v418q0 82 60 137t140 55t138 -55t62 -135q0 -10 -10 -10h-80q-10 0 -11 10q-4 38 -32.5 64t-66.5 26q-41 0 -70 -25.5t-30 -66.5v-417q0 -40 29.5 -65.5
t70.5 -25.5q38 0 66.5 26t32.5 64q1 10 -9 10z" />
    <glyph glyph-name="H" unicode="H" 
d="M350 10v340h-200v-340q0 -10 -10 -10h-80q-10 0 -10 10v780q0 10 10 10h80q10 0 10 -10v-340h200v340q0 10 10 10h80q10 0 10 -10v-780q0 -10 -10 -10h-80q-10 0 -10 10z" />
    <glyph glyph-name="I" unicode="I" 
d="M60 800h380q10 0 10 -10v-80q0 -10 -10 -10h-140v-600h140q10 0 10 -10v-80q0 -10 -10 -10h-380q-10 0 -10 10v80q0 10 10 10h140v600h-140q-10 0 -10 10v80q0 10 10 10z" />
    <glyph glyph-name="J" unicode="J" 
d="M43 200q0 10 10 10h80q9 0 10 -10q0 -44 28.5 -71t70.5 -27t71.5 28t29.5 70v597q0 10 10 10h93q10 0 10 -10v-597q0 -42 -18 -78.5t-47.5 -63.5t-68 -42.5t-79.5 -15.5q-42 0 -78.5 15.5t-63.5 42t-42.5 62.5t-15.5 80z" />
    <glyph glyph-name="K" unicode="K" 
d="M48 10v780q0 10 10 10h80q10 0 10 -10v-325l188 325q6 10 16 10h90q10 0 4 -10l-225 -390l225 -390q6 -10 -4 -10h-90q-10 0 -16 10l-188 325v-325q0 -10 -10 -10h-80q-10 0 -10 10z" />
    <glyph glyph-name="L" unicode="L" 
d="M150 100h290q10 0 10 -10v-80q0 -10 -10 -10h-380q-10 0 -10 10v780q0 10 10 10h80q10 0 10 -10v-690z" />
    <glyph glyph-name="M" unicode="M" 
d="M50 10v784q0 6 7 6h95q10 0 13 -6l85 -146l85 146q3 6 13 6h95q7 0 7 -6v-784q0 -10 -10 -10h-80q-10 0 -10 10v612l-100 -172l-100 172v-612q0 -10 -10 -10h-80q-10 0 -10 10z" />
    <glyph glyph-name="N" unicode="N" 
d="M49 10v782q0 10 10 10h80q8 0 10 -8l201 -513v511q0 10 10 10h80q10 0 10 -10v-782q0 -10 -10 -10h-80q-7 0 -10 7l-201 511v-508q0 -10 -10 -10h-80q-10 0 -10 10z" />
    <glyph glyph-name="O" unicode="O" 
d="M450 190q0 -79 -60 -134.5t-141 -55.5q-80 0 -140 55.5t-60 134.5v1.5v209.5v209q0 79 60 135.5t140 56.5q81 0 141 -57.5t60 -132.5v-422zM250 100q40 0 69.5 25.5t29.5 66.5v420q1 38 -30 64t-70 26q-40 0 -70 -25.5t-30 -66.5v-418q1 -42 28.5 -67t71.5 -25h1z" />
    <glyph glyph-name="P" unicode="P" 
d="M149 700v-251h75q51 0 86.5 37t35.5 88q0 52 -35.5 89t-86.5 37h-75zM450 576q0 -92 -65 -158.5t-157 -66.5h-79v-341q0 -10 -10 -10h-80q-10 0 -10 10v782q0 10 10 10h165q97 -2 161.5 -67.5t64.5 -158.5z" />
    <glyph glyph-name="Q" unicode="Q" 
d="M449 192q0 -98 -83 -154l82 -228q4 -10 -6 -10h-95q-10 0 -14 10l-69 190h-16q-81 0 -140.5 56t-59.5 135v420q0 79 59.5 135t140.5 56q82 0 141.5 -56t59.5 -134v-420zM329 140q19 22 19 50v422q0 38 -30.5 64t-69.5 26q-43 0 -71.5 -26.5t-28.5 -65.5l1 -420
q0 -28 21.5 -55.5t56.5 -32.5l-32 88q-3 10 7 10h95q10 0 13 -10z" />
    <glyph glyph-name="R" unicode="R" 
d="M148 702v-251h75q51 0 86.5 37t35.5 88q0 52 -35.5 89t-86.5 37h-75zM449 576q0 -67 -36.5 -122.5t-95.5 -82.5l131 -361q4 -10 -6 -10h-95q-10 0 -14 10l-124 341h-61v-341q0 -10 -10 -10h-80q-10 0 -10 10v782q0 10 10 10h165q104 0 165 -66.5t61 -159.5z" />
    <glyph glyph-name="S" unicode="S" 
d="M108 744q59 58 141 58q81 0 139 -55.5t62 -135.5q0 -10 -10 -10h-80q-10 0 -11 10q-4 39 -32.5 65t-67.5 26q-41 0 -70.5 -29.5t-29.5 -70.5q0 -36 23 -63q209 -188 229 -207q49 -48 49 -131t-58.5 -142t-142.5 -59q-80 0 -138 55.5t-62 134.5q0 10 10 10h80q10 0 11 -10
q3 -38 31.5 -64t67.5 -26q50 0 75 27.5t25 64.5q0 17 -1 33t-15 32l-222 199q-62 56 -62 156q0 77 59 132z" />
    <glyph glyph-name="T" unicode="T" 
d="M59 802h381q10 0 10 -10v-80q0 -10 -10 -10h-140v-692q0 -10 -10 -10h-81q-10 0 -10 10v692h-140q-10 0 -10 10v80q0 10 10 10z" />
    <glyph glyph-name="U" unicode="U" 
d="M350 193v599q0 10 10 10h80q10 0 10 -10v-603q0 -79 -60.5 -134t-140.5 -55q-81 0 -140.5 56t-59.5 134v602q0 10 10 10h80q10 0 10 -10l1 -602q0 -32 28.5 -61t70.5 -29q44 -1 72.5 28.5t28.5 64.5z" />
    <glyph glyph-name="V" unicode="V" 
d="M349 792q1 10 10 10h84q9 0 7 -14l-151 -779q-2 -9 -10 -9h-78q-8 0 -10 9l-151 779q-3 14 6 14h84q9 0 11 -10l88 -459q2 -8 10 -8q9 0 10 8z" />
    <glyph glyph-name="W" unicode="W" 
d="M49 792q0 10 10 10h80q10 0 10 -10l36 -614l65 173l64 -173l36 614q0 10 10 10h80q11 0 10 -10q-35 -784 -35 -786q0 -6 -7 -6h-99q-8 0 -10 6l-49 146l-50 -146q-3 -6 -10 -6h-99q-7 0 -7 6z" />
    <glyph glyph-name="X" unicode="X" 
d="M165 10q-4 -10 -14 -10h-95q-10 0 -6 10l142 391l-142 391q-4 10 6 10h95q10 0 14 -10l85 -233l85 233q3 10 13 10h95q10 0 7 -10l-143 -391l143 -391q3 -10 -7 -10h-95q-10 0 -13 10l-85 233z" />
    <glyph glyph-name="Y" unicode="Y" 
d="M250 559l85 233q3 10 13 10h95q10 0 7 -10l-150 -411v-371q0 -10 -10 -10h-80q-10 0 -10 10v371l-150 411q-4 10 6 10h95q10 0 14 -10z" />
    <glyph glyph-name="Z" unicode="Z" 
d="M443 802q10 0 6 -10l-251 -692h242q10 0 10 -10v-80q0 -10 -10 -10h-384q-10 0 -6 10l251 692h-242q-10 0 -10 10v80q0 10 10 10h384z" />
    <glyph glyph-name="bracketleft" unicode="[" 
d="M231 700q-9 0 -9 -10v-580q0 -10 9 -10h139q9 0 9 -10v-80q0 -10 -9 -10h-239q-10 0 -10 10l1 781q0 9 9 9h239q9 0 9 -10v-80q0 -10 -9 -10h-139z" />
    <glyph glyph-name="asciicircum" unicode="^" 
d="M197 790q3 10 13 10h81q10 0 13 -10l146 -402q3 -10 -7 -10h-95q-10 0 -13 10l-85 234l-86 -236q-3 -10 -13 -10h-95q-10 0 -7 10z" />
    <glyph glyph-name="grave" unicode="`" 
d="M225 608l-65 180q-3 10 7 10h95q10 0 13 -10l65 -180q3 -10 -7 -10h-94q-11 0 -14 10z" />
    <glyph glyph-name="a" unicode="a" 
d="M350 194v164q0 44 -27.5 71t-72.5 27q-39 0 -70 -27t-31 -68v-167q0 -42 31 -69t70 -27q37 0 68.5 26.5t31.5 69.5zM350 542q0 10 10 10h81q10 0 10 -10v-532q0 -10 -10 -10h-81q-10 0 -10 10v17q-46 -27 -100 -27q-80 0 -140.5 54t-60.5 132v180q0 87 62.5 136.5
t138.5 49.5q54 0 100 -27v17z" />
    <glyph glyph-name="b" unicode="b" 
d="M450 190q0 -79 -60 -134.5t-141 -55.5q-55 0 -100 36v-26q0 -10 -10 -10h-80q-10 0 -10 10v783q0 10 10 10h80q10 0 10 -10v-267q45 27 100 27q81 0 140.5 -57.5t60.5 -132.5v-173zM250 100q40 0 69.5 25.5t29.5 66.5v171q1 38 -30 64t-70 26q-40 0 -70 -22t-30 -64v-175
q0 -42 28 -67t72 -25h1z" />
    <glyph glyph-name="c" unicode="c" 
d="M250 100q39 0 69 26t31 65q1 10 11 10h80q10 0 10 -10q-4 -80 -62 -135.5t-139 -55.5q-74 0 -131 44t-70 124v210v7q12 74 69.5 120.5t131.5 46.5q81 0 139 -55.5t62 -135.5q0 -10 -10 -10h-80q-10 0 -11 10q-1 39 -31 65t-70 26q-44 0 -72 -26t-28 -68v-164
q0 -42 31.5 -68t69.5 -26z" />
    <glyph glyph-name="d" unicode="d" 
d="M49 363q1 75 60.5 132.5t140.5 57.5q55 0 100 -27v267q0 10 10 10h80q10 0 10 -10v-783q0 -10 -10 -10h-80q-10 0 -10 10v26q-45 -36 -100 -36q-81 0 -141 55.5t-60 134.5v173zM250 100q44 0 72 25t28 67v175q0 42 -30 64t-70 22q-39 0 -70 -26t-30 -64v-171
q0 -41 29.5 -66.5t69.5 -25.5h1z" />
    <glyph glyph-name="e" unicode="e" 
d="M250 452q-42 0 -71.5 -26t-27.5 -59h198q0 33 -29.5 59t-69.5 26zM49 175v203q0 70 62.5 122t138.5 52q81 0 141 -55.5t60 -135.5v-84q0 -10 -10 -10h-292v-73q0 -38 31 -66t70 -28t69 28t31 63q1 10 11 10h80q10 0 10 -10q0 -80 -60 -135.5t-141 -55.5
q-76 0 -138.5 53.5t-62.5 121.5z" />
    <glyph glyph-name="f" unicode="f" 
d="M149 10q0 -10 -10 -10h-80q-10 0 -10 10v616q0 70 62.5 123.5t138.5 53.5q80 0 140 -56t60 -135q1 -10 -10 -10h-80q-9 0 -10 10q0 38 -30.5 64.5t-69.5 26.5t-70 -26.5t-31 -64.5v-160h191q10 0 10 -10v-81q0 -10 -10 -10h-191v-341z" />
    <glyph glyph-name="g" unicode="g" 
d="M451 -10q0 -80 -60.5 -135.5t-140.5 -55.5q-81 0 -139 55.5t-62 135.5q0 10 10 10h80q10 0 11 -10q4 -39 32.5 -65t67.5 -26t69.5 26t30.5 65v35q-45 -25 -100 -25q-80 0 -140 55.5t-60 134.5v171q0 79 60 135.5t140 56.5q54 0 100 -27v16q0 10 10 10h81q10 0 10 -10
v-552zM251 100q40 0 69.5 25.5t29.5 66.5v171q1 38 -30 64t-70 26q-40 0 -70 -25.5t-30 -66.5v-169q1 -42 28.5 -67t71.5 -25h1z" />
    <glyph glyph-name="h" unicode="h" 
d="M250 452q-39 0 -70 -26t-31 -64v-352q0 -10 -10 -10h-80q-10 0 -10 10v783q0 11 10 11h80q10 0 10 -11v-267q47 26 101 26q74 0 137.5 -48t63.5 -119v-375q0 -10 -10 -10h-81q-10 0 -10 10v348q0 42 -32 68t-68 26z" />
    <glyph glyph-name="i" unicode="i" 
d="M301 100v252q0 80 -55.5 140t-135.5 60h-50q-10 0 -10 -10v-81q0 -10 10 -10h50q38 0 64.5 -30.5t26.5 -68.5v-252h-141q-10 0 -10 -10v-80q0 -10 10 -10h380q10 0 10 10v80q-1 9 -11 10h-138zM175 724q0 32 22 54t53 22t53 -22t22 -54q0 -31 -22 -53t-53 -22t-53 22
t-22 53z" />
    <glyph glyph-name="j" unicode="j" 
d="M138 462v80q0 10 10 10h282q10 0 10 -10l-1 -552q1 -87 -59.5 -139t-140.5 -52q-81 0 -139 55.5t-62 135.5q0 10 10 10h80q10 0 11 -10q4 -38 32.5 -64t67.5 -26t69.5 26t30.5 64v445q0 17 -15 17h-176q-10 0 -10 10zM312 723q0 31 22 53t53 22t53 -22t22 -53t-22 -53
t-53 -22t-53 22t-22 53z" />
    <glyph glyph-name="k" unicode="k" 
d="M337 10l-191 329v-329q0 -10 -10 -10h-80q-10 0 -10 10v783q0 11 10 11h80q10 0 10 -11v-262l91 -158l98 169q6 10 16 10h91q10 0 4 -10l-153 -265l155 -267q5 -10 -5 -10h-91q-10 0 -15 10z" />
    <glyph glyph-name="l" unicode="l" 
d="M49 742q0 10 10 10h80q10 0 10 -10v-552q0 -40 31 -65.5t70 -25.5t67.5 26.5t32.5 64.5q1 10 11 10h80q10 0 10 -10q-4 -80 -62 -135.5t-139 -55.5q-80 0 -140.5 55.5t-60.5 135.5v552z" />
    <glyph glyph-name="m" unicode="m" 
d="M49 9v532q0 10 10 10h80q4 0 7 -2q13 2 29 2q47 0 75 -18q29 18 76 18q72 0 102 -47q23 -37 23 -113v-382q0 -10 -10 -10h-81q-10 0 -10 10v352q0 90 -24 90q-26 0 -26 -92v-350q0 -10 -10 -10h-80q-10 0 -10 10l-1 352q0 90 -24 90q-26 0 -26 -92v-350q0 -10 -10 -10
h-80q-10 0 -10 10z" />
    <glyph glyph-name="n" unicode="n" 
d="M350 9v348q0 43 -31.5 68t-68.5 25q-39 0 -69.5 -25t-30.5 -65v-351q0 -10 -10 -10h-80q-10 0 -10 10v531q0 10 10 10h80q10 0 10 -10v-17q46 27 100 27q74 0 137 -44.5t63 -121.5v-375q0 -10 -10 -10h-80q-10 0 -10 10z" />
    <glyph glyph-name="o" unicode="o" 
d="M450 190q0 -79 -60 -134.5t-141 -55.5q-80 0 -140 55.5t-60 134.5v1.5v85v84.5q0 79 60 135.5t140 56.5q81 0 141 -57.5t60 -132.5v-173zM250 100q40 0 69.5 25.5t29.5 66.5v171q1 38 -30 64t-70 26q-40 0 -70 -25.5t-30 -66.5v-169q1 -42 28.5 -67t71.5 -25h1z" />
    <glyph glyph-name="p" unicode="p" 
d="M450 190q-1 -75 -60.5 -132.5t-140.5 -57.5q-55 0 -100 27v-219q0 -10 -10 -10h-80q-10 0 -10 10v735q0 10 10 10h80q10 0 10 -10v-26q45 36 100 36q81 0 141 -55.5t60 -134.5v-173zM249 453q-44 0 -72 -25t-28 -67v-175q0 -42 30 -64t70 -22q39 0 70 26t30 64v171
q0 41 -29.5 66.5t-69.5 25.5h-1z" />
    <glyph glyph-name="q" unicode="q" 
d="M49 363q0 79 60 134.5t141 55.5q55 0 100 -36v26q0 10 10 10h80q10 0 10 -10v-735q0 -10 -10 -10h-80q-10 0 -10 10v219q-45 -27 -100 -27q-81 0 -140.5 57.5t-60.5 132.5v173zM249 453q-40 0 -69.5 -25.5t-29.5 -66.5v-171q-1 -38 30 -64t70 -26q40 0 70 22t30 64v175
q0 42 -28 67t-72 25h-1z" />
    <glyph glyph-name="r" unicode="r" 
d="M347 361v15q0 32 -31 53t-65 21q-39 0 -70 -26t-31 -64v-354q0 -7 -10 -7h-78q-10 0 -10 7v370q0 74 61.5 124t137.5 50q51 0 96 -25v15q0 10 10 10h80q10 0 10 -10v-180q0 -10 -10 -10h-80q-10 0 -10 5.5v5.5z" />
    <glyph glyph-name="s" unicode="s" 
d="M440 253q10 -4 10 -14v-87q-10 -33 -29.5 -61t-46 -48t-58.5 -31.5t-66 -11.5q-39 0 -75.5 15t-64 40.5t-44.5 60.5t-17 75q0 10 10 10h80q10 0 10 -10q4 -39 33 -64.5t68 -25.5q18 0 35 6.5t30.5 18t22 27t11.5 33.5l-290 105q-10 4 -10 14v80q4 36 23 65.5t47 50t62 32
t69 11.5q39 0 74.5 -15t63.5 -41.5t45 -61t17 -73.5q0 -10 -10 -10h-81q-9 0 -10 10q-3 39 -31.5 64.5t-67.5 25.5q-18 0 -35 -6.5t-30.5 -18t-23 -26.5t-12.5 -33z" />
    <glyph glyph-name="t" unicode="t" 
d="M249 101q39 0 67.5 25.5t32.5 64.5q1 10 11 10h80q10 0 9 -10q-3 -80 -61 -135.5t-139 -55.5q-77 0 -138.5 52.5t-61.5 128.5v607q0 10 10 10h83q10 0 10 -10v-237h186q10 0 10 -10v-80q0 -10 -10 -10h-186v-270q0 -34 30.5 -57t66.5 -23z" />
    <glyph glyph-name="u" unicode="u" 
d="M50 540q0 10 10 10h80q10 0 10 -10v-350q0 -39 28.5 -64.5t71.5 -25.5q39 0 69.5 25.5t30.5 64.5v350q0 10 10 10h80q10 0 10 -10v-531q0 -10 -10 -10h-80q-10 0 -10 10v27q-46 -37 -100 -37q-81 0 -140.5 55.5t-59.5 135.5v350z" />
    <glyph glyph-name="v" unicode="v" 
d="M348 546q2 7 11 7h84q9 0 6 -9l-151 -537q-2 -7 -10 -7h-77q-8 0 -10 7l-151 537q-3 9 6 9h84q9 0 11 -7l89 -317q2 -5 9 -5q8 0 10 5z" />
    <glyph glyph-name="w" unicode="w" 
d="M451 543v-532q0 -10 -10 -10h-81q-3 0 -6 2q-14 -2 -29 -2q-47 0 -75 18q-29 -18 -76 -18q-72 0 -102 47q-23 37 -23 113v382q0 10 10 10h80q10 0 10 -10l1 -352q0 -90 24 -90q26 0 26 90v352q0 10 10 10h80q10 0 10 -10v-352q0 -90 25 -90t25 90v352q0 10 10 10h81
q10 0 10 -10z" />
    <glyph glyph-name="x" unicode="x" 
d="M250 100q-39 0 -67.5 -26t-32.5 -65q-1 -10 -10 -10h-80q-10 0 -10 10q3 67 45 117.5t105 66.5v166q-63 16 -105 67t-45 117q0 10 10 10h80q9 0 10 -10q4 -38 32.5 -64t67.5 -26t67.5 26t32.5 64q1 10 10 10h80q10 0 10 -10q-3 -66 -45 -117t-105 -67v-166
q63 -16 105 -67t45 -117q0 -10 -10 -10h-80q-9 0 -10 10q-4 39 -32.5 65t-67.5 26z" />
    <glyph glyph-name="y" unicode="y" 
d="M350 26q-46 -27 -100 -27q-73 0 -136.5 58t-63.5 136v350q0 10 10 10h80q10 0 10 -10v-350q0 -42 31 -67.5t69 -25.5q39 0 69.5 25.5t30.5 66.5v351q0 10 10 10h80q10 0 10 -10v-554q-1 -79 -60.5 -134.5t-139.5 -55.5t-138 55.5t-62 134.5q0 10 10 10h80q9 0 10 -10
q4 -38 32.5 -64t67.5 -26t69.5 26t30.5 64v10v27z" />
    <glyph glyph-name="z" unicode="z" 
d="M206 100h235q10 0 10 -11v-80q0 -10 -10 -10h-383q-10 0 -6 7l234 444h-225q-10 0 -10 10v80q0 10 10 10h373q10 0 7 -7z" />
    <glyph glyph-name="bracketright" unicode="]" 
d="M135 700q-9 0 -9 10v80q0 10 9 10h228q9 0 9 -9l1 -781q0 -10 -10 -10h-228q-9 0 -9 10v80q0 10 9 10h128q9 0 9 10v580q0 10 -9 10h-128z" />
    <glyph glyph-name="backslash" unicode="\" 
d="M165 791l284 -781q4 -10 -6 -10h-95q-10 0 -13 10l-285 781q-3 10 7 10h95q10 0 13 -10z" />
    <glyph glyph-name="Euro" unicode="&#x20ac;" 
d="M450 559q0 -10 -10 -10h-80q-10 0 -10 10v40q0 21 -8 39.5t-21.5 32t-31.5 21.5t-39 8t-39.5 -8t-32 -21.5t-21.5 -32t-8 -39.5v-50h91q10 0 10 -10v-80q0 -10 -10 -10h-91v-100h91q10 0 10 -10v-80q0 -10 -10 -10h-91v-50q0 -21 8 -39.5t21.5 -32t32 -21.5t39.5 -8t39 8
t31.5 21.5t21.5 32t8 39.5v40q0 10 10 10h80q10 0 10 -10v-41q0 -41 -16 -77.5t-43 -63.5t-63.5 -43t-77.5 -16q-42 0 -78.5 16t-63.5 43t-43 63.5t-16 77.5v401q0 42 16 78.5t43 63.5t63.5 43t78.5 16q41 0 77.5 -16t63.5 -43t43 -63.5t16 -78.5v-40z" />
    <glyph glyph-name="less" unicode="&#x3c;" 
d="M441 501q10 1 10 -7v-95q0 -11 -10 -14l-215 -85l213 -86q10 -1 10 -13v-95q0 -8 -10 -7l-381 147q-10 3 -10 13v81q0 10 10 13z" />
    <glyph glyph-name="NULL" 
d="M59 351q-10 0 -10 10v80q0 10 10 10h382q10 0 10 -10l-1 -80q0 -10 -10 -10h-381zM59 151q-10 0 -10 10v80q0 10 10 10h382q10 0 10 -10l-1 -80q0 -10 -10 -10h-381z" />
    <glyph glyph-name="greater" unicode="&#x3e;" 
d="M441 353q10 -3 10 -13v-81q0 -10 -10 -13l-381 -147q-10 -1 -10 7v95q0 12 10 13l213 86l-215 85q-10 3 -10 14v95q0 8 10 7z" />
    <glyph glyph-name="equal" unicode="=" 
d="M59 350q-10 0 -10 10v80q0 10 10 10h382q10 0 10 -10v-80q0 -10 -11 -10h-381zM59 150q-10 0 -10 10v80q0 10 10 10h382q10 0 10 -10v-80q0 -10 -11 -10h-381z" />
    <glyph glyph-name="question" unicode="?" 
d="M148 560q0 -9 -10 -9h-79q-10 0 -10 9v41q0 42 15.5 78.5t42.5 63.5t63.5 43t78.5 16t78.5 -16t63.5 -43t43 -63.5t16 -78.5v-100q0 -31 -12 -58.5t-32.5 -47.5t-48 -32t-58.5 -12q-21 0 -35.5 -15t-14.5 -35v-91q0 -10 -10 -10h-81q-10 0 -10 10l1 90q0 31 12 58.5
t32 48t47.5 32.5t58.5 12q21 0 36 14.5t15 35.5v100q0 21 -8 39.5t-21.5 32t-32 21.5t-39.5 8t-39 -8t-32 -21.5t-22 -32t-8 -39.5v-41zM249 90q0 10 -10 10h-81q-10 0 -10 -10v-81q0 -9 10 -9h81q10 0 10 9v81z" />
    <glyph glyph-name="slash" unicode="/" 
d="M335 790q3 10 13 10h95q10 0 7 -10l-285 -781q-3 -10 -13 -10h-95q-10 0 -6 10z" />
    <glyph glyph-name="dollar" unicode="$" 
d="M401 326q49 -48 49 -131t-59 -142q-41 -41 -92 -53v-44q0 -10 -10 -10h-80q-10 0 -10 10v44q-48 10 -88 49q-57 54 -62 135q0 10 10 10h80q10 0 11 -10q2 -26 15 -46t34 -31v263l-88 80q-62 54 -62 156q0 73 50.5 125.5t99.5 58.5v44q0 10 10 10h80q10 0 10 -10v-44
q50 -14 89 -50q57 -54 62 -135q0 -10 -10 -10h-80q-10 0 -11 10q-3 25 -16.5 45.5t-33.5 31.5v-264q45 -40 70 -63t32 -29zM172 533q7 -7 13.5 -13t13.5 -12v175q-23 -14 -36.5 -36.5t-13.5 -50.5q0 -35 23 -63zM350 195q0 30 -17 56l-34 30v-171q31 20 41.5 43t9.5 42z" />
    <glyph glyph-name="exclam" unicode="!" 
d="M300 210q0 -10 -10 -10h-80q-10 0 -10 10v578q0 10 10 10h80q10 0 10 -10v-578zM300 10q0 -10 -10 -10h-80q-10 0 -10 10v80q0 10 10 10h80q10 0 10 -10v-80z" />
    <glyph glyph-name="braceleft" unicode="{" 
d="M412 10q0 -10 -10 -10h-2q-42 0 -78.5 16t-63.5 43t-42.5 63.5t-15.5 78.5l-1 50q0 21 -8 39.5t-21.5 32t-32 21.5t-39.5 8h-1q-10 0 -10 10v80q0 10 10 10h1q21 0 39.5 8t32 21.5t21.5 32t8 39.5l1 50q0 42 15.5 78.5t42.5 63.5t63.5 42.5t78.5 15.5h2q10 0 10 -10v-80
q0 -10 -10 -10h-2q-21 0 -39.5 -8t-32 -21.5t-21 -31.5t-7.5 -39l-1 -51q0 -45 -18 -83.5t-50 -66.5q32 -28 50 -67t18 -84l1 -50q0 -21 7.5 -39.5t21 -32t32 -21.5t39.5 -8h2q10 0 10 -9v-81z" />
    <glyph glyph-name="parenleft" unicode="(" 
d="M344 0q-41 0 -77.5 15.5t-63.5 42.5t-43 63.5t-16 78.5v401q0 42 16 78.5t43 63.5t63.5 43t77.5 16h2q10 0 10 -10v-81q0 -10 -10 -10h-2q-42 0 -71 -29t-29 -71v-401q0 -42 29 -71t71 -29h2q10 0 10 -10v-80q0 -10 -10 -10h-2z" />
    <glyph glyph-name="glyph80" 
d="M154 0q-10 0 -10 10v80q0 10 10 10h2q42 0 71 29t29 71v401q0 42 -29 71t-71 29h-2q-10 0 -10 10v81q0 10 10 10h2q41 0 77.5 -16t63.5 -43t43 -63.5t16 -78.5v-401q0 -42 -16 -78.5t-43 -63.5t-63.5 -42.5t-77.5 -15.5h-2z" />
    <glyph glyph-name="numbersign" unicode="#" 
d="M440 251q4 0 7.5 -3t3.5 -7v-80q0 -5 -3.5 -7.5t-8.5 -2.5h-40v-141q0 -10 -10 -10h-80q-10 0 -10 10v141h-100v-141q0 -10 -10 -10h-80q-10 0 -10 10v141h-41q-9 0 -9 10v80q0 10 9 10h41v100h-41q-9 0 -9 9v81q0 10 9 10h41v141q0 10 10 10h80q10 0 10 -10v-141h100
v141q0 10 10 10h80q10 0 10 -10v-141h41q4 0 7.5 -3t3.5 -7v-81q0 -4 -3.5 -6.5t-8.5 -2.5h-40v-100h41zM299 251v100h-100v-100h100z" />
    <glyph glyph-name="quotedbl" unicode="&#x22;" 
d="M199 607q0 -10 -10 -10h-80q-10 0 -10 10v181q0 10 10 10h80q10 0 10 -11v-180zM399 607q0 -10 -10 -10h-80q-9 0 -9 10v181q0 10 9 10h81q10 0 10 -11z" />
    <glyph glyph-name="percent" unicode="%" 
d="M335 791q3 10 13 10h95q10 0 7 -10l-285 -781q-3 -10 -13 -10h-95q-10 0 -6 10zM252 701q0 -21 -8 -39.5t-21.5 -32t-32 -21t-39.5 -7.5t-39 7.5t-31.5 21t-21.5 32t-8 39.5q0 42 29 71t71 29q21 0 39.5 -8t32 -21.5t21.5 -31.5t8 -39zM452 99q0 -42 -29 -71t-71 -29
t-71 29t-29 71q0 21 8 39t21.5 31.5t31.5 21.5t39 8t39 -8t31.5 -21.5t21.5 -31.5t8 -39z" />
    <glyph glyph-name="quotesingle" unicode="'" 
d="M300 607q0 -10 -10 -10h-80q-10 0 -10 10v181q0 10 10 10h80q10 0 10 -11v-180z" />
    <glyph glyph-name="asterisk" unicode="*" 
d="M441 647q10 0 10 -10v-80q0 -10 -11 -10h-69l49 -50q2 -3 3 -7t-3 -7l-56 -56q-3 -3 -7.5 -3t-6.5 3l-50 49v-70q0 -10 -10 -10h-80q-10 0 -10 11v69l-50 -49q-2 -3 -6.5 -3t-7.5 3l-56 56q-3 3 -3 7.5t3 7.5l50 49h-71q-10 0 -10 10v80q0 10 10 10h70l-49 50
q-3 2 -3 6.5t3 7.5l56 56q7 8 15 0l49 -49v70q0 10 10 10h80q10 0 10 -10v-70l50 49q2 3 6.5 3.5t7.5 -3.5l57 -56q6 -8 0 -14l-50 -50h70z" />
    <glyph glyph-name="plus" unicode="+" 
d="M441 349q3 0 6 -3t3 -7v-80q0 -10 -11 -10h-140v-141q0 -10 -10 -10h-79q-11 0 -11 10v141h-141q-9 0 -9 10v80q0 10 9 10h141v141q0 10 11 10h79q10 0 10 -11v-140h142z" />
    <glyph glyph-name="hyphen" unicode="-" 
d="M59 251q-10 0 -10 10v80q0 10 10 10h382q10 0 10 -10v-80q0 -10 -11 -10h-381z" />
    <glyph glyph-name="underscore" unicode="_" 
d="M59 0q-10 0 -10 10v80q0 10 10 10h382q10 0 10 -10v-80q0 -10 -11 -10h-381z" />
    <glyph glyph-name="bar" unicode="|" 
d="M200 788q0 10 10 10h80q10 0 10 -10v-778q0 -10 -10 -10h-80q-10 0 -10 11v777z" />
    <glyph glyph-name="comma" unicode="," 
d="M275 -91q-4 -10 -14 -10h-95q-10 0 -6 10l65 180q3 10 13 10h95q10 0 7 -10z" />
    <glyph glyph-name="zero" unicode="0" 
d="M450 612v-422q0 -80 -59.5 -135t-141.5 -55q-85 0 -142.5 54.5t-57.5 135.5v420q0 79 60 135.5t140 56.5q85 0 143 -56.5t58 -133.5zM149 282l149 408q-24 12 -49 12q-40 0 -70 -25t-30 -67v-328zM349 517l-148 -407q20 -10 48 -10q41 0 70.5 25t29.5 67v325z" />
    <glyph glyph-name="one" unicode="1" 
d="M335 803q5 0 7.5 -3.5t2.5 -7.5v-782q0 -10 -10 -10h-80q-10 0 -10 10v629h-80q-10 0 -10 10v85q0 3 2 5l95 64h3h80z" />
    <glyph glyph-name="period" unicode="." 
d="M175 75q0 32 22 54t53 22t53 -22t22 -54q0 -31 -22 -53t-53 -22t-53 22t-22 53z" />
    <glyph glyph-name="parenright" unicode=")" 
d="M154 0q-10 0 -10 10v80q0 10 10 10h2q42 0 71 29t29 71v401q0 42 -29 71t-71 29h-2q-10 0 -10 10v81q0 10 10 10h2q41 0 77.5 -16t63.5 -43t43 -63.5t16 -78.5v-401q0 -42 -16 -78.5t-43 -63.5t-63.5 -42.5t-77.5 -15.5h-2z" />
    <glyph glyph-name="braceright" unicode="}" 
d="M87 91q0 9 10 9h2q21 0 39 8t31.5 21.5t21.5 32t8 39.5l1 50q0 45 18 84t50 67q-32 28 -50 66.5t-18 83.5l-1 51q0 21 -8 39t-21.5 31.5t-31.5 21.5t-39 8h-2q-10 0 -10 10v80q0 10 10 10h2q42 0 78.5 -15.5t63.5 -42.5t42.5 -63.5t15.5 -78.5l1 -50q0 -21 8 -39.5
t21.5 -32t32 -21.5t39.5 -8h1q10 0 10 -10v-80q0 -10 -10 -10h-1q-21 0 -39.5 -8t-32 -21.5t-21.5 -32t-8 -39.5l-1 -50q0 -42 -15.5 -78.5t-42.5 -63.5t-63.5 -43t-78.5 -16h-2q-10 0 -10 10v81z" />
    <glyph glyph-name="florin" unicode="&#x192;" 
d="M300 191q0 -87 -62.5 -139t-134.5 -52l1 100q34 0 65 26.5t31 64.5l1 416q0 84 62 137.5t133 53.5v-100q-34 0 -64.5 -26.5t-30.5 -64.5l-1 -54h87q10 0 10 -10v-81q0 -10 -10 -10h-87v-261z" />
    <glyph glyph-name="questiondown" unicode="&#xbf;" 
d="M351 242q0 9 10 9h79q10 0 10 -9v-41q0 -42 -15.5 -78.5t-42.5 -63.5t-63.5 -43t-78.5 -16t-78.5 16t-63.5 43t-43 63.5t-16 78.5v100q0 31 12 58.5t32.5 47.5t48 32t58.5 12q21 0 35.5 15t14.5 35v91q0 10 10 10h81q10 0 10 -10l-1 -90q0 -31 -12 -58.5t-32 -48
t-47.5 -32.5t-58.5 -12h-1q-20 0 -35 -14.5t-15 -35.5v-100q0 -21 8 -39.5t21.5 -32t32 -21.5t39.5 -8t39 8t32 21.5t22 32t8 39.5v41zM250 793q0 9 10 9h81q10 0 10 -9v-81q0 -10 -10 -10h-81q-10 0 -10 10v81z" />
    <glyph glyph-name="sterling" unicode="&#xa3;" 
d="M388 742q57 -54 62 -135q0 -10 -10 -10h-80q-10 0 -11 10q-4 38 -32.5 64t-67.5 26q-20 0 -37.5 -7t-31.5 -19t-22.5 -28.5t-8.5 -35.5v-206h243q10 0 10 -10v-80q0 -10 -11 -10h-242v-184q0 -17 15 -17h228q10 0 10 -10v-80q0 -10 -10 -10h-333q-10 0 -10 10v597
q0 77 62 135q59 56 138 56q80 0 139 -56z" />
    <glyph glyph-name="yen" unicode="&#xa5;" 
d="M300 303v-100h144q5 0 7.5 -3.5t2.5 -7.5v-80q0 -10 -11 -10h-143v-92q0 -10 -9 -10h-80q-10 0 -10 10v92h-139q-3 0 -6 2.5t-3 7.5v80q0 4 3 7.5t6 3.5h139v100h-139q-3 0 -6 2.5t-3 6.5v80q0 5 3 7.5t6 2.5h131l-142 386q-6 10 6 10h95q10 0 14 -10l84 -232l85 232
q4 10 13 10h95q11 0 7 -10l-141 -386h135q10 0 10 -10v-80q0 -9 -11 -9h-143z" />
    <glyph glyph-name="glyph100" 
d="M441 353q10 -3 10 -13v-81q0 -10 -10 -13l-176 -115q-10 -1 -10 7v95q0 12 10 13l88 54l-88 47q-10 5 -10 14v95q0 8 10 7zM235 353q10 -3 10 -13v-81q0 -10 -10 -13l-176 -115q-10 -1 -10 7v95q0 12 10 13l88 54l-88 47q-10 5 -10 14v95q0 8 10 7z" />
    <glyph glyph-name="guillemotright" unicode="&#xbb;" 
d="M441 353q6 -5 8 -7.5t2 -7.5v-76q0 -5 -2.5 -8t-7.5 -8l-176 -155q-10 -1 -10 9v100q0 5 2.5 8t7.5 8l88 84l-88 77q-4 4 -7 8.5t-3 9.5v100q0 9 10 8zM235 353q6 -5 8 -7.5t2 -7.5v-76q0 -5 -2.5 -8t-7.5 -8l-176 -155q-10 -1 -10 9v100q0 5 2.5 8t7.5 8l88 84l-88 77
q-4 4 -7 8.5t-3 9.5v100q0 9 10 8z" />
    <glyph glyph-name="guillemotleft" unicode="&#xab;" 
d="M441 503q10 1 10 -8v-100q0 -5 -3 -9.5t-7 -8.5l-88 -77l88 -84q5 -5 7.5 -8t2.5 -8v-100q0 -10 -10 -9l-176 155q-5 5 -7.5 8t-2.5 8v76q0 5 2 7.5t8 7.5zM235 503q10 1 10 -8v-100q0 -5 -3 -9.5t-7 -8.5l-88 -77l88 -84q5 -5 7.5 -8t2.5 -8v-100q0 -10 -10 -9l-176 155
q-5 5 -7.5 8t-2.5 8v76q0 5 2 7.5t8 7.5z" />
    <glyph glyph-name="circumflex" unicode="&#x2c6;" 
d="M198 1086q3 5 5.5 7.5t7.5 2.5h77q5 0 7.5 -2.5t5.5 -7.5l114 -176q3 -5 0.5 -7.5t-7.5 -2.5h-95q-7 0 -13 10l-52 88l-49 -88q-6 -10 -14 -10h-95q-7 0 -8 3.5t1 6.5z" />
    <glyph glyph-name="endash" unicode="&#x2013;" 
d="M59 246q-10 0 -10 10v80q0 10 10 10h382q10 0 10 -10v-80q0 -10 -11 -10h-381z" />
    <glyph glyph-name="macron" unicode="&#xaf;" 
d="M59 695q-10 0 -10 10v80q0 10 10 10h382q10 0 10 -10v-80q0 -10 -11 -10h-381z" />
    <glyph glyph-name="plusminus" unicode="&#xb1;" 
d="M59 0q-10 0 -10 10v80q0 10 10 10h140v151h-141q-9 0 -9 10v80q0 10 9 10h141v141q0 10 11 10h79q10 0 10 -11v-140h142q3 0 6 -3t3 -7v-80q0 -10 -11 -10h-140v-151h142q10 0 10 -10v-80q0 -10 -11 -10h-381z" />
    <glyph glyph-name="dieresis" unicode="&#xa8;" 
d="M50 722q0 31 22 53t53 22t53 -22t22 -53t-22 -53t-53 -22t-53 22t-22 53zM300 722q0 31 22 53t53 22t53 -22t22 -53t-22 -53t-53 -22t-53 22t-22 53z" />
    <glyph glyph-name="tilde" unicode="&#x2dc;" 
d="M222 946q-32 17 -48 7t-36 -46l-1 -2q-5 -9 -14 -4l-70 39q-8 3 -4 13l1 1q20 36 39.5 61t43.5 36t53.5 8.5t70.5 -20.5l18 -8q23 -10 42 -3t39 44l2 3q4 8 13 4l74 -40q9 -5 3 -13l-2 -4q-38 -78 -89 -96.5t-120 13.5z" />
    <glyph glyph-name="asciitilde" unicode="~" 
d="M223 258q-32 17 -48 7t-36 -46q-6 -11 -15 -6l-70 39q-8 5 -3 14q20 36 39.5 61t43.5 36t53.5 8.5t70.5 -20.5l18 -8q23 -10 42 -3t39 44q5 11 15 7l74 -40q7 -5 1 -17q-38 -78 -89 -96.5t-120 13.5z" />
    <glyph glyph-name="quotedblright" unicode="&#x201d;" 
d="M352 792q0 10 10 10h80q10 0 10 -10v-95q0 -42 -16 -78.5t-43 -63.5t-63.5 -42.5t-78.5 -15.5h-2q-9 0 -9 10v80q0 10 9 10h2q21 0 39.5 8t32 21.5t21.5 32t8 39.5v94zM160 792q0 10 10 10h80q10 0 10 -10v-95q0 -42 -16 -78.5t-43 -63.5t-63.5 -42.5t-78.5 -15.5h-2
q-9 0 -9 10v80q0 10 9 10h2q21 0 39.5 8t32 21.5t21.5 32t8 39.5v94z" />
    <glyph glyph-name="quotedblleft" unicode="&#x201c;" 
d="M148 506q0 -10 -10 -10h-80q-10 0 -10 10v95q0 42 16 78.5t43 63.5t63.5 42.5t78.5 15.5h2q9 0 9 -10v-80q0 -10 -9 -10h-2q-21 0 -39.5 -8t-32 -21.5t-21.5 -32t-8 -39.5v-94zM340 506q0 -10 -10 -10h-80q-10 0 -10 10v95q0 42 16 78.5t43 63.5t63.5 42.5t78.5 15.5h2
q9 0 9 -10v-80q0 -10 -9 -10h-2q-21 0 -39.5 -8t-32 -21.5t-21.5 -32t-8 -39.5v-94z" />
    <glyph glyph-name="quoteright" unicode="&#x2019;" 
d="M256 792q0 10 10 10h80q10 0 10 -10v-95q0 -42 -16 -78.5t-43 -63.5t-63.5 -42.5t-78.5 -15.5h-2q-9 0 -9 10v80q0 10 9 10h2q21 0 39.5 8t32 21.5t21.5 32t8 39.5v94z" />
    <glyph glyph-name="guilsinglright" unicode="&#x203a;" 
d="M338 353q6 -5 8 -7.5t2 -7.5v-76q0 -5 -2.5 -8t-7.5 -8l-176 -155q-10 -1 -10 9v100q0 5 2.5 8t7.5 8l88 84l-88 77q-4 4 -7 8.5t-3 9.5v100q0 9 10 8z" />
    <glyph glyph-name="ampersand" unicode="&#x26;" 
d="M438 102q10 0 10 -10v-81q0 -10 -11 -10h-188q-39 0 -73.5 14.5t-66.5 41.5q-30 29 -45.5 61.5t-15.5 71.5v119q2 44 19 79t49 64q-68 64 -68 150q0 42 15.5 78.5t42.5 63.5t63.5 42.5t78.5 15.5q41 0 77.5 -15.5t63.5 -42.5t43 -63.5t16 -78.5q0 -45 -18 -83.5
t-49 -66.5q-5 -4 -8.5 -7t-8.5 -7l80 -43q8 -5 4 -13l-38 -71q-5 -8 -14 -3l-171 92q-35 -7 -56 -30.5t-22 -60.5v-115q0 -45 30 -68.5t72 -23.5h189zM248 703q-21 0 -39.5 -8t-32 -21.5t-21.5 -32t-8 -39.5q0 -31 18 -57q14 -20 34.5 -31.5t46.5 -11.5h2q42 0 71 29t29 71
q0 21 -8 39.5t-21.5 32t-31.5 21.5t-39 8z" />
    <glyph glyph-name="multiply" unicode="&#xd7;" 
d="M250 100q-39 0 -67.5 -26t-32.5 -65q-1 -10 -10 -10h-80q-10 0 -10 10q3 67 45 117.5t105 66.5v163q-63 16 -105 67t-45 117q0 10 10 10h80q9 0 10 -10q4 -38 32.5 -64t67.5 -26t67.5 26t32.5 64q1 10 10 10h80q10 0 10 -10q-3 -66 -45 -117t-105 -67v-163
q63 -16 105 -67t45 -117q0 -10 -10 -10h-80q-9 0 -10 10q-4 39 -32.5 65t-67.5 26z" />
    <glyph glyph-name="quoteleft" unicode="&#x2018;" 
d="M244 506q0 -10 -10 -10h-80q-10 0 -10 10v95q0 42 16 78.5t43 63.5t63.5 42.5t78.5 15.5h2q9 0 9 -10v-80q0 -10 -9 -10h-2q-21 0 -39.5 -8t-32 -21.5t-21.5 -32t-8 -39.5v-94z" />
    <glyph glyph-name="cedilla" unicode="&#xb8;" 
d="M256 61q0 10 10 10h80q10 0 10 -10v-95q0 -42 -16 -78.5t-43 -63.5t-63.5 -42.5t-78.5 -15.5h-2q-9 0 -9 10v80q0 10 9 10h2q21 0 39.5 8t32 21.5t21.5 32t8 39.5v94z" />
    <glyph glyph-name="periodcentered" unicode="&#xb7;" 
d="M175 301q0 31 22 53t53 22t53 -22t22 -53t-22 -53t-53 -22t-53 22t-22 53z" />
    <glyph glyph-name="quotesinglbase" unicode="&#x201a;" 
d="M256 90q0 10 10 10h80q10 0 10 -10v-95q0 -42 -16 -78.5t-43 -63.5t-63.5 -42.5t-80.5 -15.5q-9 0 -9 10v80q0 10 9 10q23 0 41.5 8t32 21.5t21.5 32t8 39.5v94z" />
    <glyph glyph-name="quotedblbase" unicode="&#x201e;" 
d="M352 90q0 10 10 10h80q10 0 10 -10v-95q0 -42 -16 -78.5t-43 -63.5t-63.5 -42.5t-80.5 -15.5q-9 0 -9 10v80q0 10 9 10q23 0 41.5 8t32 21.5t21.5 32t8 39.5v94zM160 90q0 10 10 10h80q10 0 10 -10v-95q0 -42 -16 -78.5t-43 -63.5t-63.5 -42.5t-80.5 -15.5q-9 0 -9 10v80
q0 10 9 10q23 0 41.5 8t32 21.5t21.5 32t8 39.5v94z" />
    <glyph glyph-name="acute" unicode="&#xb4;" 
d="M275 608q-3 -10 -14 -10h-94q-10 0 -7 10l65 180q3 10 13 10h95q10 0 7 -10z" />
    <glyph glyph-name="Oslash" unicode="&#xd8;" 
d="M337 790q3 10 13 10h95q10 0 7 -10l-32 -88q26 -41 26 -90v-422q0 -79 -60 -134.5t-141 -55.5q-41 0 -76 14l-2 -5q-3 -10 -13 -10h-95q-10 0 -6 10l27 74q-35 46 -35 107v420q0 79 60 135.5t140 56.5q48 0 89 -21zM245 702q-40 0 -70 -25.5t-30 -66.5v-348l154 424
q-25 16 -54 16zM246 100q40 0 69.5 25.5t29.5 66.5v305l-143 -390q19 -7 43 -7h1z" />
    <glyph glyph-name="guilsinglleft" unicode="&#x2039;" 
d="M338 503q10 1 10 -8v-100q0 -5 -3 -9.5t-7 -8.5l-88 -77l88 -84q5 -5 7.5 -8t2.5 -8v-100q0 -10 -10 -9l-176 155q-5 5 -7.5 8t-2.5 8v76q0 5 2 7.5t8 7.5z" />
    <glyph glyph-name="degree" unicode="&#xb0;" 
d="M175 727q0 31 22 53t53 22t53 -22t22 -53t-22 -53t-53 -22t-53 22t-22 53z" />
    <glyph glyph-name="germandbls" unicode="&#xdf;" 
d="M258 449q25 6 49.5 27t33.5 42.5t9 56.5q0 52 -37 88q-36 37 -88 37h-64q-11 0 -11 -10v-680q0 -10 -10 -10h-80q-10 0 -10 10v780q0 10 10 10h165q92 0 160 -66q65 -67 65 -159q0 -108 -84 -175q84 -68 84 -175q0 -92 -65 -159q-58 -58 -135 -65l-18 -1q-10 0 -10 10v80
q0 10 10 10l18 2q36 7 63 34q37 37 37 89q0 26 -7.5 49.5t-33.5 47.5t-51 27q-10 0 -10 10v81q0 7 10 9z" />
    <glyph glyph-name="space" unicode=" " 
 />
    <glyph glyph-name="uni00AD" unicode="&#xad;" 
d="M62 0v800h375v-800h-375zM124 63h250v675h-250v-675z" />
    <glyph glyph-name="copyright.001" 
d="M-28 389q0 57 22 107.5t59.5 88t88.5 59.5t108 22q58 0 108.5 -22t88 -59.5t59.5 -88t22 -107.5v-115q0 -58 -22 -108.5t-59.5 -88.5t-88 -60t-108.5 -22q-57 0 -108 22t-88.5 60t-59.5 88.5t-22 108.5v115zM73 271q0 -36 14 -68t38 -56t56 -37.5t69 -13.5t69 13.5
t56 37.5t38 56t14 68v123q0 36 -14 68t-38 56t-56 37.5t-69 13.5t-69 -13.5t-56 -37.5t-38 -56t-14 -68v-123zM250 193q31 0 54.5 20.5t24.5 51.5q1 8 8 8h64q8 0 8 -8q-4 -63 -49.5 -107t-109.5 -44q-59 0 -104 35t-55 98v166v5q9 59 54.5 95.5t104.5 36.5q64 0 109.5 -44
t49.5 -107q0 -8 -8 -8h-64q-7 0 -8 8q-1 31 -24.5 51.5t-55.5 20.5q-35 0 -57 -20.5t-22 -53.5v-130q0 -33 25 -53.5t55 -20.5z" />
    <glyph glyph-name="ellipsis" unicode="&#x2026;" 
d="M175 75q0 32 22 54t53 22t53 -22t22 -54q0 -31 -22 -53t-53 -22t-53 22t-22 53zM355 75q0 32 22 54t53 22t53 -22t22 -54q0 -31 -22 -53t-53 -22t-53 22t-22 53zM-5 75q0 32 22 54t53 22t53 -22t22 -54q0 -31 -22 -53t-53 -22t-53 22t-22 53z" />
    <glyph glyph-name="dagger" unicode="&#x2020;" 
d="M59 544q-10 0 -10 10v80q0 10 10 10h135v144q0 10 10 10h80q10 0 10 -10v-144h147q10 0 10 -10v-80q0 -10 -11 -10h-146v-534q0 -10 -10 -10h-80q-10 0 -10 11v533h-135z" />
    <glyph glyph-name="daggerdbl" unicode="&#x2021;" 
d="M59 199q-10 0 -10 10v80q0 10 10 10h141v245h-141q-10 0 -10 10v80q0 10 10 10h141v144q0 10 10 10h80q10 0 10 -10v-144h141q10 0 10 -10v-80q0 -10 -11 -10h-140v-245h141q10 0 10 -10v-80q0 -10 -11 -10h-140v-189q0 -10 -10 -10h-80q-10 0 -10 11v188h-141z" />
    <glyph glyph-name="perthousand" unicode="&#x2030;" 
d="M290 791q3 10 13 10h95q10 0 7 -10l-285 -781q-3 -10 -13 -10h-95q-10 0 -6 10zM207 701q0 -21 -8 -39.5t-21.5 -32t-32 -21t-39.5 -7.5t-39 7.5t-31.5 21t-21.5 32t-8 39.5q0 42 29 71t71 29q21 0 39.5 -8t32 -21.5t21.5 -31.5t8 -39zM497 99q0 -42 -29 -71t-71 -29
t-71 29t-29 71q0 21 8 39t21.5 31.5t31.5 21.5t39 8t39 -8t31.5 -21.5t21.5 -31.5t8 -39zM497 338q0 -42 -29 -71t-71 -29t-71 29t-29 71q0 21 8 39t21.5 31.5t31.5 21.5t39 8t39 -8t31.5 -21.5t21.5 -31.5t8 -39z" />
    <glyph glyph-name="OE" unicode="&#x152;" 
d="M350 190q0 -50 -16 -90h107q10 0 10 -10v-80q0 -10 -10 -10h-242q-70 0 -110 55.5t-40 134.5v430q0 69 37 125.5t117 54.5h238q10 0 10 -10v-80q0 -10 -10 -10h-104q13 -40 13 -78v-172h79q10 0 10 -10v-80q0 -10 -10 -10h-79v-160zM200 100q30 0 39.5 20t9.5 72v430
q0 38 -8.5 59t-39.5 21q-28 0 -40 -21t-12 -61v-428q0 -52 12 -72t38 -20h1z" />
    <glyph glyph-name="bullet" unicode="&#x2022;" 
d="M50 280q0 83 58.5 141.5t140.5 58.5q83 0 141.5 -58.5t58.5 -141.5q0 -82 -58.5 -140.5t-141.5 -58.5q-82 0 -140.5 58.5t-58.5 140.5z" />
    <glyph glyph-name="emdash" unicode="&#x2014;" 
d="M59 246q-10 0 -10 10v80q0 10 10 10h382q10 0 10 -10v-80q0 -10 -11 -10h-381z" />
    <glyph glyph-name="trademark" unicode="&#x2122;" 
d="M72 61v381q0 10 10 10h80q10 0 10 -10v-140h245q10 0 10 -10v-81q0 -10 -10 -10h-245v-140q0 -10 -10 -10h-80q-10 0 -10 10zM417 551h-333q-2 0 -4 1q-6 -4 -6 6v95q0 10 6 13l146 85l-146 85q-6 3 -6 13v95q0 10 6 6q2 1 4 1h333q10 0 10 -10v-80q0 -10 -10 -10h-165
l172 -100l-172 -100h165q10 0 10 -10v-80q0 -10 -10 -10z" />
    <glyph glyph-name="currency" unicode="&#xa4;" 
d="M166 640l34 -95q23 5 47 5q26 0 50 -6l35 96q4 10 14 10h95q10 0 6 -10l-55 -151q55 -45 55 -116v-116q0 -54 -52 -94l55 -153q4 -10 -6 -10h-95q-10 0 -14 10l-35 96q-26 -6 -53 -6q-25 0 -48 5l-34 -95q-4 -10 -14 -10h-95q-10 0 -6 10l53 147q-56 43 -56 111v116
q0 62 58 106l-54 150q-4 10 6 10h95q10 0 14 -10zM147 357v-63q0 -40 31 -66.5t69 -26.5q39 0 69.5 27t30.5 63v67q0 42 -30.5 68t-69.5 26q-43 1 -71.5 -25.5t-28.5 -69.5z" />
    <glyph glyph-name="brokenbar" unicode="&#xa6;" 
d="M300 439q0 -10 -10 -10h-80q-10 0 -10 10v449q0 10 10 10h80q10 0 10 -11v-448zM300 -90q0 -10 -10 -10h-80q-10 0 -10 10v449q0 10 10 10h80q10 0 10 -11v-448z" />
    <glyph glyph-name="section" unicode="&#xa7;" 
d="M107 952q60 56 142 56q81 0 141 -55.5t60 -135.5q0 -10 -10 -10h-80q-10 0 -11 10q0 39 -29 65t-71 26q-41 0 -70.5 -26t-29.5 -74q0 -40 27 -68l225 -202q23 -24 36 -58t13 -75v-9q0 -79 -59 -135q-37 -35 -84 -48l94 -84q49 -55 49 -142q0 -79 -58.5 -134.5
t-142.5 -55.5q-80 0 -140 55.5t-60 134.5q0 10 10 10h80q10 0 11 -10q3 -38 31.5 -64t67.5 -26t70 26t30 75q0 40 -36 74l-202 181q-34 31 -48 68.5t-14 83.5q0 81 58 138q37 35 83 48l-79 71q-62 57 -62 156q0 77 58 134zM178 473q-29 -26 -29 -68q0 -40 30.5 -69.5
t69.5 -29.5t69.5 25.5t30.5 74.5q0 37 -29 65t-71 28q-41 0 -71 -26z" />
    <glyph glyph-name="ordfeminine" unicode="&#xaa;" 
d="M350 488v118q-1 44 -28 71t-72 27q-39 0 -70 -27t-30 -68l-1 -121q0 -42 31 -69t70 -27q37 0 68 26.5t32 69.5zM350 790q0 10 10 10h81q10 0 10 -10v-486q0 -10 -10 -10h-81q-10 0 -10 10v17q-46 -27 -100 -27q-80 0 -140.5 54t-60.5 119v147q0 81 65 135q60 51 136 51
q54 0 100 -27v17z" />
    <glyph glyph-name="copyright" unicode="&#xa9;" 
d="M0 384q0 55 19.5 103.5t53.5 85t79.5 57.5t96.5 21q53 0 98 -21t79 -57.5t53.5 -85t19.5 -103.5v-111q0 -56 -19.5 -104.5t-53.5 -85.5t-79 -58t-98 -21q-51 0 -96.5 21t-79.5 58t-53.5 85.5t-19.5 104.5v111zM250 192q-32 0 -56 18.5t-24 55.5v130q0 33 22 53.5t57 20.5
q32 0 55.5 -20.5t24.5 -51.5q1 -8 8 -8h64q8 0 8 8q-4 63 -49.5 107t-109.5 44q-59 0 -109 -36.5t-50 -95.5v-171q0 -52 48 -92.5t111 -40.5q64 0 109.5 44t49.5 107q0 8 -8 8h-64q-7 0 -8 -8q-1 -31 -24.5 -51.5t-54.5 -20.5z" />
    <glyph glyph-name="logicalnot" unicode="&#xac;" 
d="M352 251h-295q-10 0 -10 10v80q0 10 10 10h385q10 0 10 -10v-184q0 -10 -10 -10h-80q-10 0 -10 11v93z" />
    <glyph glyph-name="registered" unicode="&#xae;" 
d="M0 384q0 55 19.5 103.5t53.5 85t79.5 57.5t96.5 21q53 0 98 -21t79 -57.5t53.5 -85t19.5 -103.5v-111q0 -56 -19.5 -104.5t-53.5 -85.5t-79 -58t-98 -21q-51 0 -96.5 21t-79.5 58t-53.5 85.5t-19.5 104.5v111zM170 396q0 33 22 53.5t57 20.5q32 0 55.5 -20.5t24.5 -51.5
q1 -8 8 -8h64q8 0 8 8q-4 63 -49.5 107t-109.5 44q-59 0 -104.5 -36.5t-54.5 -95.5v-171q10 -63 55 -98q11 -9 24 -16v264z" />
    <glyph glyph-name="twosuperior" unicode="&#xb2;" 
d="M135 429q0 12 -1.5 24t2.5 24q8 20 21.5 36t24.5 33l52 81q6 10 12.5 20t13.5 20q3 5 5.5 9.5t6.5 9.5q0 1 1.5 3.5t0.5 0.5t-1.5 -4.5t-3.5 -3.5q-2 0 1.5 5t6.5 13q0 3 -0.5 5.5t-0.5 4.5q-6 8 -11.5 12t-16.5 4q-4 -2 -8 -2q-11 -8 -13 -19t-11 -20q-6 -4 -6 -3.5
t-7 -1.5q-11 0 -21 -0.5t-20 0.5q-3 0 -7 2t-7 4t-4 2.5t1 -2.5q-4 5 -6 8.5t-3 10.5q0 37 17.5 61.5t43 36.5t56 11.5t56 -13.5t42.5 -37.5t16 -61.5q-1 -17 -6 -31t-13 -29q-21 -41 -47.5 -77t-50.5 -74h94q8 -3 7.5 -2.5t5.5 -4.5l2 -2q5 -6 4.5 -5.5t2.5 -7.5v-42
q-1 -7 -2 -10.5t-6 -8.5l-2 -2q-7 -4 -6.5 -3.5t-6.5 -1.5h-182q-12 1 -18 9l1 -2q-4 5 -6 8.5t-3 10.5v2z" />
    <glyph glyph-name="threesuperior" unicode="&#xb3;" 
d="M345 573q8 -15 13 -29t6 -31q1 -37 -16 -61.5t-42.5 -37.5t-56 -13.5t-56 11.5t-43 36.5t-17.5 61.5q1 10 7 17q-1 -2 6.5 2.5t12.5 5.5q10 1 20 0.5t21 -0.5q7 -2 7 -1.5t6 -3.5q9 -9 11 -20t13 -19q4 0 8 -2q11 0 16.5 4t11.5 12q0 2 0.5 4.5t0.5 5.5q-3 8 -6.5 12.5
t-2.5 5.5q-2 4 -4 7.5t-4 7.5q-3 4 -8 11t-9.5 14.5t-8 14t-2.5 10.5l-1 1q-6 1 -3 10t9.5 20.5t14 22t10.5 15.5q2 3 4 7l4 8q0 1 3 5.5t6 12.5q0 3 -0.5 5.5t-0.5 4.5q-6 8 -11.5 12t-16.5 4q-4 -2 -8 -2q-11 -8 -13 -19t-11 -20q-6 -4 -6 -3.5t-7 -1.5q-11 0 -21 -0.5
t-20 0.5q-6 1 -13 5.5t-5 1.5q-7 7 -8 18q0 37 17.5 61.5t43 36.5t56 11.5t56 -13.5t42.5 -37.5t16 -61.5q-1 -17 -6 -31t-13 -29l-19 -39z" />
    <glyph glyph-name="paragraph" unicode="&#xb6;" 
d="M240 450l6 -2q6 -2 6 -8v-81q0 -10 -10 -10q-48 0 -85.5 25.5t-61 61t-34.5 72.5t-11 67q0 92 65 159q67 66 160 66h165q10 0 10 -10v-780q0 -4 -2 -7t-8 -3h-80q-10 0 -10 10v680q0 10 -11 10h-64q-52 0 -88 -37q-37 -36 -37 -88q0 -26 9 -52t33.5 -47t47.5 -26z" />
    <glyph glyph-name="onesuperior" unicode="&#xb9;" 
d="M335 803q5 0 7.5 -3.5t2.5 -7.5v-380q0 -10 -10 -10h-80q-10 0 -10 10v257l-80 -30q-4 -2 -7 2t-3 8v85q0 3 2 5l2 2q22 15 40 27q15 11 28.5 20t15.5 11q0 1 2 2q1 1 3 1t4 1h3h80z" />
    <glyph glyph-name="ordmasculine" unicode="&#xba;" 
d="M150 606v-3q0 -40 31 -66.5t68 -26.5q40 0 70.5 27t30.5 63v5q0 44 -30.5 70t-71.5 26q-38 0 -68 -26t-30 -69zM50 605v4q1 95 64 142.5t134 47.5q78 0 140 -49t62 -145v-5q-5 -99 -66.5 -145t-134.5 -46t-134 46t-65 150z" />
    <glyph glyph-name="onequarter" unicode="&#xbc;" 
d="M198 803q5 0 7.5 -3.5t2.5 -7.5v-380q0 -10 -10 -10h-80q-10 0 -10 10v227h-80q-10 0 -10 10v85q0 3 2 5l2 2q22 15 40 27q15 11 28.5 20t15.5 11q0 1 2 2q1 1 3 1t4 1h3h80zM460 173q8 -15 13 -29t6 -31q1 -37 -16 -61.5t-42.5 -37.5t-56 -13.5t-56 11.5t-43 36.5
t-17.5 61.5q1 10 7 17q-1 -2 6.5 2.5t12.5 5.5q10 1 20 0.5t21 -0.5q7 -2 7 -1.5t6 -3.5q9 -9 11 -20t13 -19q4 0 8 -2q11 0 16.5 4t11.5 12q0 2 0.5 4.5t0.5 5.5q-3 8 -6.5 12.5t-2.5 5.5q-2 4 -4 7.5t-4 7.5q-3 4 -8 11t-9.5 14.5t-8 14t-2.5 10.5l-1 1q-6 1 -3 10
t9.5 20.5t14 22t10.5 15.5q2 3 4 7l4 8q0 1 3 5.5t6 12.5q0 3 -0.5 5.5t-0.5 4.5q-6 8 -11.5 12t-16.5 4q-4 -2 -8 -2q-11 -8 -13 -19t-11 -20q-6 -4 -6 -3.5t-7 -1.5q-11 0 -21 -0.5t-20 0.5q-6 1 -13 5.5t-5 1.5q-7 7 -8 18q0 37 17.5 61.5t43 36.5t56 11.5t56 -13.5
t42.5 -37.5t16 -61.5q-1 -17 -6 -31t-13 -29l-19 -39z" />
    <glyph glyph-name="onehalf" unicode="&#xbd;" 
d="M198 803q5 0 7.5 -3.5t2.5 -7.5v-380q0 -10 -10 -10h-80q-10 0 -10 10v227h-80q-10 0 -10 10v85q0 3 2 5l2 2q22 15 40 27q15 11 28.5 20t15.5 11q0 1 2 2q1 1 3 1t4 1h3h80zM248 31q0 12 -1.5 24t2.5 24q8 20 21.5 36t24.5 33l52 81q6 10 12.5 20t13.5 20q3 5 5.5 9.5
t6.5 9.5q0 1 1.5 3.5t0.5 0.5t-1.5 -4.5t-3.5 -3.5q-2 0 1.5 5t6.5 13q0 3 -0.5 5.5t-0.5 4.5q-6 8 -11.5 12t-16.5 4q-4 -2 -8 -2q-11 -8 -13 -19t-11 -20q-6 -4 -6 -3.5t-7 -1.5q-11 0 -21 -0.5t-20 0.5q-3 0 -7 2t-7 4t-4 2.5t1 -2.5q-4 5 -6 8.5t-3 10.5q0 37 17.5 61.5
t43 36.5t56 11.5t56 -13.5t42.5 -37.5t16 -61.5q-1 -17 -6 -31t-13 -29q-21 -41 -47.5 -77t-50.5 -74h94q8 -3 7.5 -2.5t5.5 -4.5l2 -2q5 -6 4.5 -5.5t2.5 -7.5v-42q-1 -7 -2 -10.5t-6 -8.5l-2 -2q-7 -4 -6.5 -3.5t-6.5 -1.5h-182q-12 1 -18 9l1 -2q-4 5 -6 8.5t-3 10.5v2z
" />
    <glyph glyph-name="threequarters" unicode="&#xbe;" 
d="M462 173q8 -15 13 -29t6 -31q1 -37 -16 -61.5t-42.5 -37.5t-56 -13.5t-56 11.5t-43 36.5t-17.5 61.5q1 10 7 17q-1 -2 6.5 2.5t12.5 5.5q10 1 20 0.5t21 -0.5q7 -2 7 -1.5t6 -3.5q9 -9 11 -20t13 -19q4 0 8 -2q11 0 16.5 4t11.5 12q0 2 0.5 4.5t0.5 5.5q-3 8 -6.5 12.5
t-2.5 5.5q-2 4 -4 7.5t-4 7.5q-3 4 -8 11t-9.5 14.5t-8 14t-2.5 10.5l-1 1q-6 1 -3 10t9.5 20.5t14 22t10.5 15.5q2 3 4 7l4 8q0 1 3 5.5t6 12.5q0 3 -0.5 5.5t-0.5 4.5q-6 8 -11.5 12t-16.5 4q-4 -2 -8 -2q-11 -8 -13 -19t-11 -20q-6 -4 -6 -3.5t-7 -1.5q-11 0 -21 -0.5
t-20 0.5q-6 1 -13 5.5t-5 1.5q-7 7 -8 18q0 37 17.5 61.5t43 36.5t56 11.5t56 -13.5t42.5 -37.5t16 -61.5q-1 -17 -6 -31t-13 -29l-19 -39zM19 414q0 12 -1.5 24t2.5 24q8 20 21.5 36t24.5 33l52 81q6 10 12.5 20t13.5 20q3 5 5.5 9.5t6.5 9.5q0 1 1.5 3.5t0.5 0.5
t-1.5 -4.5t-3.5 -3.5q-2 0 1.5 5t6.5 13q0 3 -0.5 5.5t-0.5 4.5q-6 8 -11.5 12t-16.5 4q-4 -2 -8 -2q-11 -8 -13 -19t-11 -20q-6 -4 -6 -3.5t-7 -1.5q-11 0 -21 -0.5t-20 0.5q-3 0 -7 2t-7 4t-4 2.5t1 -2.5q-4 5 -6 8.5t-3 10.5q0 37 17.5 61.5t43 36.5t56 11.5t56 -13.5
t42.5 -37.5t16 -61.5q-1 -17 -6 -31t-13 -29q-21 -41 -47.5 -77t-50.5 -74h94q8 -3 7.5 -2.5t5.5 -4.5l2 -2q5 -6 4.5 -5.5t2.5 -7.5v-42q-1 -7 -2 -10.5t-6 -8.5l-2 -2q-7 -4 -6.5 -3.5t-6.5 -1.5h-182q-12 1 -18 9l1 -2q-4 5 -6 8.5t-3 10.5v2z" />
    <glyph glyph-name="glyph152" 
d="M200 788q0 10 10 10h80q10 0 10 -10v-778q0 -10 -10 -10h-80q-10 0 -10 11v777z" />
    <glyph glyph-name="caron" unicode="&#x2c7;" 
d="M83 831q-2 3 -1 6.5t8 3.5h95q8 0 14 -10l49 -88l52 88q6 10 13 10h95q5 0 7.5 -3t-0.5 -7l-114 -176q-3 -5 -5.5 -7.5t-7.5 -2.5h-77q-5 0 -7.5 2.5t-5.5 7.5z" />
    <glyph glyph-name="mu" unicode="&#xb5;" 
d="M450 190q0 -80 -59.5 -135.5t-140.5 -55.5q-54 0 -100 37v-227q0 -10 -10 -10h-80q-10 0 -10 10v731q0 10 10 10h80q10 0 10 -10v-350q0 -39 30.5 -64.5t69.5 -25.5q43 0 71.5 25.5t28.5 64.5v350q0 10 10 10h80q10 0 10 -10v-350z" />
    <glyph glyph-name="mu" unicode="&#x3bc;" 
d="M450 190q0 -80 -59.5 -135.5t-140.5 -55.5q-54 0 -100 37v-227q0 -10 -10 -10h-80q-10 0 -10 10v731q0 10 10 10h80q10 0 10 -10v-350q0 -39 30.5 -64.5t69.5 -25.5q43 0 71.5 25.5t28.5 64.5v350q0 10 10 10h80q10 0 10 -10v-350z" />
    <glyph glyph-name="ogonek" unicode="&#x2db;" 
d="M244 -33q0 -21 8 -39.5t21.5 -32t32 -21.5t39.5 -8h2q9 0 9 -10v-80q0 -10 -9 -10h-2q-42 0 -78.5 15.5t-63.5 42.5t-43 63.5t-16 78.5v95q0 10 10 10h80q10 0 10 -10v-94z" />
    <glyph glyph-name="hungarumlaut" unicode="&#x2dd;" 
d="M185 608q-3 -10 -14 -10h-94q-10 0 -7 10l65 180q3 10 13 10h95q10 0 7 -10zM365 608q-3 -10 -14 -10h-94q-10 0 -7 10l65 180q3 10 13 10h95q10 0 7 -10z" />
    <glyph glyph-name="rcaron" unicode="&#x159;" 
d="M347 361v15q0 32 -31 53t-65 21q-39 0 -70 -26t-31 -64v-354q0 -7 -10 -7h-78q-10 0 -10 7v370q0 74 61.5 124t137.5 50q51 0 96 -25v15q0 10 10 10h80q10 0 10 -10v-180q0 -10 -10 -10h-80q-10 0 -10 5.5v5.5zM83 831q-2 3 -1 6.5t8 3.5h95q8 0 14 -10l49 -88l52 88
q6 10 13 10h95q5 0 7.5 -3t-0.5 -7l-114 -176q-3 -5 -5.5 -7.5t-7.5 -2.5h-77q-5 0 -7.5 2.5t-5.5 7.5z" />
    <glyph glyph-name="divide" unicode="&#xf7;" 
d="M59 229q-10 0 -10 10v80q0 10 10 10h382q10 0 10 -10l-1 -80q0 -10 -10 -10h-381zM175 475q0 31 22 53t53 22t53 -22t22 -53t-22 -53t-53 -22t-53 22t-22 53zM175 74q0 32 22 54t53 22t53 -22t22 -54q0 -31 -22 -53t-53 -22t-53 22t-22 53z" />
    <glyph glyph-name="dcroat" unicode="&#x111;" 
d="M448 400v-244q0 -65 -64 -111t-136 -46q-74 0 -136.5 46t-63.5 122v217q0 62 63.5 115t137.5 53q47 0 87 -19l-19 104l-56 -17q-10 -3 -10 7v95q0 10 10 13l36 11l-8 47q0 10 10 10h81q10 0 10 -10l3 -17l48 15q10 4 10 -6v-95q0 -10 -10 -14l-27 -8l34 -148v-120z
M148 357v-164q0 -40 31 -66.5t69 -26.5q39 0 69.5 27t30.5 63v168q0 42 -30.5 68t-69.5 26q-40 0 -70 -26t-30 -69z" />
    <glyph glyph-name="Aacute" unicode="&#xc1;" 
d="M201 200h100q11 0 9 11l-50 257q-2 7 -10 7t-9 -7l-50 -257q-1 -11 10 -11zM333 93q-2 7 -9 7h-147q-7 0 -9 -7l-16 -83q-2 -10 -11 -10h-84q-9 0 -6 13l151 779q2 9 10 9h77q8 0 10 -9l151 -779q2 -13 -7 -13h-83q-9 0 -11 10zM309 879q-3 -10 -14 -10h-94q-10 0 -7 10
l65 180q3 10 13 10h95q10 0 7 -10z" />
    <glyph glyph-name="Adieresis" unicode="&#xc4;" 
d="M201 200h100q11 0 9 11l-50 257q-2 7 -10 7t-9 -7l-50 -257q-1 -11 10 -11zM333 93q-2 7 -9 7h-147q-7 0 -9 -7l-16 -83q-2 -10 -11 -10h-84q-9 0 -6 13l151 779q2 9 10 9h77q8 0 10 -9l151 -779q2 -13 -7 -13h-83q-9 0 -11 10zM50 977q0 31 22 53t53 22t53 -22t22 -53
t-22 -53t-53 -22t-53 22t-22 53zM300 977q0 31 22 53t53 22t53 -22t22 -53t-22 -53t-53 -22t-53 22t-22 53z" />
    <glyph glyph-name="Cacute" unicode="&#x106;" 
d="M250 100q38 0 66.5 26t32.5 64q1 10 11 10h80q10 0 10 -10q-4 -80 -62 -135t-138 -55q-81 0 -140.5 54t-59.5 136v420q-1 79 59.5 134.5t140.5 55.5t138 -55.5t62 -134.5q0 -10 -10 -10h-80q-10 0 -11 10q-4 38 -32.5 64t-66.5 26q-41 0 -70.5 -25.5t-29.5 -66.5v-418
q0 -35 27.5 -62.5t72.5 -27.5zM301 878q-3 -10 -14 -10h-94q-10 0 -7 10l65 180q3 10 13 10h95q10 0 7 -10z" />
    <glyph glyph-name="Ccedilla" unicode="&#xc7;" 
d="M250 100q38 0 66.5 26t32.5 64q1 10 11 10h80q10 0 10 -10q-4 -80 -62 -135t-138 -55q-81 0 -140.5 54t-59.5 136v420q-1 79 59.5 134.5t140.5 55.5t138 -55.5t62 -134.5q0 -10 -10 -10h-80q-10 0 -11 10q-4 38 -32.5 64t-66.5 26q-41 0 -70.5 -25.5t-29.5 -66.5v-418
q0 -35 27.5 -62.5t72.5 -27.5zM247 89q0 10 10 10h80q10 0 10 -10v-95q0 -42 -16 -78.5t-43 -63.5t-63.5 -42.5t-78.5 -15.5h-2q-9 0 -9 10v80q0 10 9 10h2q21 0 39.5 8t32 21.5t21.5 32t8 39.5v94z" />
    <glyph glyph-name="Ccaron" unicode="&#x10c;" 
d="M250 100q38 0 66.5 26t32.5 64q1 10 11 10h80q10 0 10 -10q-4 -80 -62 -135t-138 -55q-81 0 -140.5 54t-59.5 136v420q-1 79 59.5 134.5t140.5 55.5t138 -55.5t62 -134.5q0 -10 -10 -10h-80q-10 0 -11 10q-4 38 -32.5 64t-66.5 26q-41 0 -70.5 -25.5t-29.5 -66.5v-418
q0 -35 27.5 -62.5t72.5 -27.5zM76 1020q-2 3 -1 6.5t8 3.5h95q8 0 14 -10l49 -88l52 88q6 10 13 10h95q5 0 7.5 -3t-0.5 -7l-114 -176q-3 -5 -5.5 -7.5t-7.5 -2.5h-77q-5 0 -7.5 2.5t-5.5 7.5z" />
    <glyph glyph-name="Eacute" unicode="&#xc9;" 
d="M149 450h240q10 0 10 -10v-80q0 -10 -10 -10h-240v-250h292q10 0 10 -10v-80q0 -10 -10 -10h-382q-10 0 -10 10v778q0 10 10 10h382q10 0 10 -10v-78q0 -10 -10 -10h-292v-250zM315 879q-3 -10 -14 -10h-94q-10 0 -7 10l65 180q3 10 13 10h95q10 0 7 -10z" />
    <glyph glyph-name="Eogonek" unicode="&#x118;" 
d="M149 450h240q10 0 10 -10v-80q0 -10 -10 -10h-240v-250h292q10 0 10 -10v-80q0 -10 -10 -10h-382q-10 0 -10 10v778q0 10 10 10h382q10 0 10 -10v-78q0 -10 -10 -10h-292v-250zM279 -10q0 -21 8 -39.5t21.5 -32t32 -21.5t39.5 -8h2q9 0 9 -10v-80q0 -10 -9 -10h-2
q-42 0 -78.5 15.5t-63.5 42.5t-43 63.5t-16 78.5v95q0 10 10 10h80q10 0 10 -10v-94z" />
    <glyph glyph-name="Edieresis" unicode="&#xcb;" 
d="M149 450h240q10 0 10 -10v-80q0 -10 -10 -10h-240v-250h292q10 0 10 -10v-80q0 -10 -10 -10h-382q-10 0 -10 10v778q0 10 10 10h382q10 0 10 -10v-78q0 -10 -10 -10h-292v-250zM50 977q0 31 22 53t53 22t53 -22t22 -53t-22 -53t-53 -22t-53 22t-22 53zM300 977
q0 31 22 53t53 22t53 -22t22 -53t-22 -53t-53 -22t-53 22t-22 53z" />
    <glyph glyph-name="Ecaron" unicode="&#x11a;" 
d="M149 450h240q10 0 10 -10v-80q0 -10 -10 -10h-240v-250h292q10 0 10 -10v-80q0 -10 -10 -10h-382q-10 0 -10 10v778q0 10 10 10h382q10 0 10 -10v-78q0 -10 -10 -10h-292v-250zM83 1023q-2 3 -1 6.5t8 3.5h95q8 0 14 -10l49 -88l52 88q6 10 13 10h95q5 0 7.5 -3t-0.5 -7
l-114 -176q-3 -5 -5.5 -7.5t-7.5 -2.5h-77q-5 0 -7.5 2.5t-5.5 7.5z" />
    <glyph glyph-name="Iacute" unicode="&#xcd;" 
d="M60 800h380q10 0 10 -10v-80q0 -10 -10 -10h-140v-600h140q10 0 10 -10v-80q0 -10 -10 -10h-380q-10 0 -10 10v80q0 10 10 10h140v600h-140q-10 0 -10 10v80q0 10 10 10zM309 879q-3 -10 -14 -10h-94q-10 0 -7 10l65 180q3 10 13 10h95q10 0 7 -10z" />
    <glyph glyph-name="Icircumflex" unicode="&#xce;" 
d="M60 800h380q10 0 10 -10v-80q0 -10 -10 -10h-140v-600h140q10 0 10 -10v-80q0 -10 -10 -10h-380q-10 0 -10 10v80q0 10 10 10h140v600h-140q-10 0 -10 10v80q0 10 10 10zM198 1024q3 5 5.5 7.5t7.5 2.5h77q5 0 7.5 -2.5t5.5 -7.5l114 -176q3 -5 0.5 -7.5t-7.5 -2.5h-95
q-7 0 -13 10l-52 88l-49 -88q-6 -10 -14 -10h-95q-7 0 -8 3.5t1 6.5z" />
    <glyph glyph-name="Dcaron" unicode="&#x10e;" 
d="M451 193q0 -80 -60.5 -136.5t-140.5 -56.5h-191q-10 0 -10 10v778q0 10 10 10h191q82 2 141.5 -56t59.5 -139v-410zM249 100q42 0 71.5 29.5t30.5 70.5v400q-1 41 -30.5 70.5t-71.5 29.5h-90q-9 0 -10 -8v-582q0 -9 7 -10h93zM54 1025q-2 3 -1 6.5t8 3.5h95q8 0 14 -10
l49 -88l52 88q6 10 13 10h95q5 0 7.5 -3t-0.5 -7l-114 -176q-3 -5 -5.5 -7.5t-7.5 -2.5h-77q-5 0 -7.5 2.5t-5.5 7.5z" />
    <glyph glyph-name="Dcroat" unicode="&#x110;" 
d="M528 193q0 -80 -60.5 -136.5t-140.5 -56.5h-191q-10 0 -10 10v778q0 10 10 10h191q82 2 141.5 -56t59.5 -139v-410zM326 100q42 0 71.5 29.5t30.5 70.5v400q-1 41 -30.5 70.5t-71.5 29.5h-90q-9 0 -10 -8v-582q0 -9 7 -10h93zM-16 354q-10 0 -10 10v80q0 10 10 10h382
q10 0 10 -10v-80q0 -10 -11 -10h-381z" />
    <glyph glyph-name="Nacute" unicode="&#x143;" 
d="M49 10v782q0 10 10 10h80q8 0 10 -8l201 -513v511q0 10 10 10h80q10 0 10 -10v-782q0 -10 -10 -10h-80q-7 0 -10 7l-201 511v-508q0 -10 -10 -10h-80q-10 0 -10 10zM301 879q-3 -10 -14 -10h-94q-10 0 -7 10l65 180q3 10 13 10h95q10 0 7 -10z" />
    <glyph glyph-name="Ncaron" unicode="&#x147;" 
d="M49 10v782q0 10 10 10h80q8 0 10 -8l201 -513v511q0 10 10 10h80q10 0 10 -10v-782q0 -10 -10 -10h-80q-7 0 -10 7l-201 511v-508q0 -10 -10 -10h-80q-10 0 -10 10zM80 1021q-2 3 -1 6.5t8 3.5h95q8 0 14 -10l49 -88l52 88q6 10 13 10h95q5 0 7.5 -3t-0.5 -7l-114 -176
q-3 -5 -5.5 -7.5t-7.5 -2.5h-77q-5 0 -7.5 2.5t-5.5 7.5z" />
    <glyph glyph-name="Oacute" unicode="&#xd3;" 
d="M450 190q0 -79 -60 -134.5t-141 -55.5q-80 0 -140 55.5t-60 134.5v1.5v209.5v209q0 79 60 135.5t140 56.5q81 0 141 -57.5t60 -132.5v-422zM250 100q40 0 69.5 25.5t29.5 66.5v420q1 38 -30 64t-70 26q-40 0 -70 -25.5t-30 -66.5v-418q1 -42 28.5 -67t71.5 -25h1z
M305 878q-3 -10 -14 -10h-94q-10 0 -7 10l65 180q3 10 13 10h95q10 0 7 -10z" />
    <glyph glyph-name="Ocircumflex" unicode="&#xd4;" 
d="M450 190q0 -79 -60 -134.5t-141 -55.5q-80 0 -140 55.5t-60 134.5v1.5v209.5v209q0 79 60 135.5t140 56.5q81 0 141 -57.5t60 -132.5v-422zM250 100q40 0 69.5 25.5t29.5 66.5v420q1 38 -30 64t-70 26q-40 0 -70 -25.5t-30 -66.5v-418q1 -42 28.5 -67t71.5 -25h1z
M198 1021q3 5 5.5 7.5t7.5 2.5h77q5 0 7.5 -2.5t5.5 -7.5l114 -176q3 -5 0.5 -7.5t-7.5 -2.5h-95q-7 0 -13 10l-52 88l-49 -88q-6 -10 -14 -10h-95q-7 0 -8 3.5t1 6.5z" />
    <glyph glyph-name="Ohungarumlaut" unicode="&#x150;" 
d="M437 190q0 -79 -60 -134.5t-141 -55.5q-80 0 -140 55.5t-60 134.5v1.5v209.5v209q0 79 60 135.5t140 56.5q81 0 141 -57.5t60 -132.5v-422zM237 100q40 0 69.5 25.5t29.5 66.5v420q1 38 -30 64t-70 26q-40 0 -70 -25.5t-30 -66.5v-418q1 -42 28.5 -67t71.5 -25h1z
M217 913q-3 -10 -14 -10h-94q-10 0 -7 10l65 180q3 10 13 10h95q10 0 7 -10zM397 913q-3 -10 -14 -10h-94q-10 0 -7 10l65 180q3 10 13 10h95q10 0 7 -10z" />
    <glyph glyph-name="Odieresis" unicode="&#xd6;" 
d="M450 190q0 -79 -60 -134.5t-141 -55.5q-80 0 -140 55.5t-60 134.5v1.5v209.5v209q0 79 60 135.5t140 56.5q81 0 141 -57.5t60 -132.5v-422zM250 100q40 0 69.5 25.5t29.5 66.5v420q1 38 -30 64t-70 26q-40 0 -70 -25.5t-30 -66.5v-418q1 -42 28.5 -67t71.5 -25h1zM50 978
q0 31 22 53t53 22t53 -22t22 -53t-22 -53t-53 -22t-53 22t-22 53zM300 978q0 31 22 53t53 22t53 -22t22 -53t-22 -53t-53 -22t-53 22t-22 53z" />
    <glyph glyph-name="Rcaron" unicode="&#x158;" 
d="M148 702v-251h75q51 0 86.5 37t35.5 88q0 52 -35.5 89t-86.5 37h-75zM449 576q0 -67 -36.5 -122.5t-95.5 -82.5l131 -361q4 -10 -6 -10h-95q-10 0 -14 10l-124 341h-61v-341q0 -10 -10 -10h-80q-10 0 -10 10v782q0 10 10 10h165q104 0 165 -66.5t61 -159.5zM54 1020
q-2 3 -1 6.5t8 3.5h95q8 0 14 -10l49 -88l52 88q6 10 13 10h95q5 0 7.5 -3t-0.5 -7l-114 -176q-3 -5 -5.5 -7.5t-7.5 -2.5h-77q-5 0 -7.5 2.5t-5.5 7.5z" />
    <glyph glyph-name="Uacute" unicode="&#xda;" 
d="M350 193v599q0 10 10 10h80q10 0 10 -10v-603q0 -79 -60.5 -134t-140.5 -55q-81 0 -140.5 56t-59.5 134v602q0 10 10 10h80q10 0 10 -10l1 -602q0 -32 28.5 -61t70.5 -29q44 -1 72.5 28.5t28.5 64.5zM306 878q-3 -10 -14 -10h-94q-10 0 -7 10l65 180q3 10 13 10h95
q10 0 7 -10z" />
    <glyph glyph-name="Uhungarumlaut" unicode="&#x170;" 
d="M341 193v599q0 10 10 10h80q10 0 10 -10v-603q0 -79 -60.5 -134t-140.5 -55q-81 0 -140.5 56t-59.5 134v602q0 10 10 10h80q10 0 10 -10l1 -602q0 -32 28.5 -61t70.5 -29q44 -1 72.5 28.5t28.5 64.5zM213 913q-3 -10 -14 -10h-94q-10 0 -7 10l65 180q3 10 13 10h95
q10 0 7 -10zM393 913q-3 -10 -14 -10h-94q-10 0 -7 10l65 180q3 10 13 10h95q10 0 7 -10z" />
    <glyph glyph-name="Udieresis" unicode="&#xdc;" 
d="M350 193v599q0 10 10 10h80q10 0 10 -10v-603q0 -79 -60.5 -134t-140.5 -55q-81 0 -140.5 56t-59.5 134v602q0 10 10 10h80q10 0 10 -10l1 -602q0 -32 28.5 -61t70.5 -29q44 -1 72.5 28.5t28.5 64.5zM50 978q0 31 22 53t53 22t53 -22t22 -53t-22 -53t-53 -22t-53 22
t-22 53zM300 978q0 31 22 53t53 22t53 -22t22 -53t-22 -53t-53 -22t-53 22t-22 53z" />
    <glyph glyph-name="Yacute" unicode="&#xdd;" 
d="M250 559l85 233q3 10 13 10h95q10 0 7 -10l-150 -411v-371q0 -10 -10 -10h-80q-10 0 -10 10v371l-150 411q-4 10 6 10h95q10 0 14 -10zM310 879q-3 -10 -14 -10h-94q-10 0 -7 10l65 180q3 10 13 10h95q10 0 7 -10z" />
    <glyph glyph-name="racute" unicode="&#x155;" 
d="M347 361v15q0 32 -31 53t-65 21q-39 0 -70 -26t-31 -64v-354q0 -7 -10 -7h-78q-10 0 -10 7v370q0 74 61.5 124t137.5 50q51 0 96 -25v15q0 10 10 10h80q10 0 10 -10v-180q0 -10 -10 -10h-80q-10 0 -10 5.5v5.5zM305 631q-3 -10 -14 -10h-94q-10 0 -7 10l65 180
q3 10 13 10h95q10 0 7 -10z" />
    <glyph glyph-name="aacute" unicode="&#xe1;" 
d="M350 194v164q0 44 -27.5 71t-72.5 27q-39 0 -70 -27t-31 -68v-167q0 -42 31 -69t70 -27q37 0 68.5 26.5t31.5 69.5zM350 542q0 10 10 10h81q10 0 10 -10v-532q0 -10 -10 -10h-81q-10 0 -10 10v17q-46 -27 -100 -27q-80 0 -140.5 54t-60.5 132v180q0 87 62.5 136.5
t138.5 49.5q54 0 100 -27v17zM295 630q-3 -10 -14 -10h-94q-10 0 -7 10l65 180q3 10 13 10h95q10 0 7 -10z" />
    <glyph glyph-name="acircumflex" unicode="&#xe2;" 
d="M350 194v164q0 44 -27.5 71t-72.5 27q-39 0 -70 -27t-31 -68v-167q0 -42 31 -69t70 -27q37 0 68.5 26.5t31.5 69.5zM350 542q0 10 10 10h81q10 0 10 -10v-532q0 -10 -10 -10h-81q-10 0 -10 10v17q-46 -27 -100 -27q-80 0 -140.5 54t-60.5 132v180q0 87 62.5 136.5
t138.5 49.5q54 0 100 -27v17zM198 773q3 5 5.5 7.5t7.5 2.5h77q5 0 7.5 -2.5t5.5 -7.5l114 -176q3 -5 0.5 -7.5t-7.5 -2.5h-95q-7 0 -13 10l-52 88l-49 -88q-6 -10 -14 -10h-95q-7 0 -8 3.5t1 6.5z" />
    <glyph glyph-name="adieresis" unicode="&#xe4;" 
d="M350 194v164q0 44 -27.5 71t-72.5 27q-39 0 -70 -27t-31 -68v-167q0 -42 31 -69t70 -27q37 0 68.5 26.5t31.5 69.5zM350 542q0 10 10 10h81q10 0 10 -10v-532q0 -10 -10 -10h-81q-10 0 -10 10v17q-46 -27 -100 -27q-80 0 -140.5 54t-60.5 132v180q0 87 62.5 136.5
t138.5 49.5q54 0 100 -27v17zM50 730q0 31 22 53t53 22t53 -22t22 -53t-22 -53t-53 -22t-53 22t-22 53zM300 730q0 31 22 53t53 22t53 -22t22 -53t-22 -53t-53 -22t-53 22t-22 53z" />
    <glyph glyph-name="cacute" unicode="&#x107;" 
d="M250 100q39 0 69 26t31 65q1 10 11 10h80q10 0 10 -10q-4 -80 -62 -135.5t-139 -55.5q-74 0 -131 44t-70 124v210v7q12 74 69.5 120.5t131.5 46.5q81 0 139 -55.5t62 -135.5q0 -10 -10 -10h-80q-10 0 -11 10q-1 39 -31 65t-70 26q-44 0 -72 -26t-28 -68v-164
q0 -42 31.5 -68t69.5 -26zM305 631q-3 -10 -14 -10h-94q-10 0 -7 10l65 180q3 10 13 10h95q10 0 7 -10z" />
    <glyph glyph-name="ccedilla" unicode="&#xe7;" 
d="M250 100q39 0 69 26t31 65q1 10 11 10h80q10 0 10 -10q-4 -80 -62 -135.5t-139 -55.5q-74 0 -131 44t-70 124v210v7q12 74 69.5 120.5t131.5 46.5q81 0 139 -55.5t62 -135.5q0 -10 -10 -10h-80q-10 0 -11 10q-1 39 -31 65t-70 26q-44 0 -72 -26t-28 -68v-164
q0 -42 31.5 -68t69.5 -26zM227 84q0 10 10 10h80q10 0 10 -10v-95q0 -42 -16 -78.5t-43 -63.5t-63.5 -42.5t-78.5 -15.5h-2q-9 0 -9 10v80q0 10 9 10h2q21 0 39.5 8t32 21.5t21.5 32t8 39.5v94z" />
    <glyph glyph-name="ccaron" unicode="&#x10d;" 
d="M250 100q39 0 69 26t31 65q1 10 11 10h80q10 0 10 -10q-4 -80 -62 -135.5t-139 -55.5q-74 0 -131 44t-70 124v210v7q12 74 69.5 120.5t131.5 46.5q81 0 139 -55.5t62 -135.5q0 -10 -10 -10h-80q-10 0 -11 10q-1 39 -31 65t-70 26q-44 0 -72 -26t-28 -68v-164
q0 -42 31.5 -68t69.5 -26zM83 772q-2 3 -1 6.5t8 3.5h95q8 0 14 -10l49 -88l52 88q6 10 13 10h95q5 0 7.5 -3t-0.5 -7l-114 -176q-3 -5 -5.5 -7.5t-7.5 -2.5h-77q-5 0 -7.5 2.5t-5.5 7.5z" />
    <glyph glyph-name="eacute" unicode="&#xe9;" 
d="M250 452q-42 0 -71.5 -26t-27.5 -59h198q0 33 -29.5 59t-69.5 26zM49 175v203q0 70 62.5 122t138.5 52q81 0 141 -55.5t60 -135.5v-84q0 -10 -10 -10h-292v-73q0 -38 31 -66t70 -28t69 28t31 63q1 10 11 10h80q10 0 10 -10q0 -80 -60 -135.5t-141 -55.5
q-76 0 -138.5 53.5t-62.5 121.5zM307 630q-3 -10 -14 -10h-94q-10 0 -7 10l65 180q3 10 13 10h95q10 0 7 -10z" />
    <glyph glyph-name="eogonek" unicode="&#x119;" 
d="M250 452q-42 0 -71.5 -26t-27.5 -59h198q0 33 -29.5 59t-69.5 26zM49 175v203q0 70 62.5 122t138.5 52q81 0 141 -55.5t60 -135.5v-84q0 -10 -10 -10h-292v-73q0 -38 31 -66t70 -28t69 28t31 63q1 10 11 10h80q10 0 10 -10q0 -80 -60 -135.5t-141 -55.5
q-76 0 -138.5 53.5t-62.5 121.5zM299 -9q0 -21 8 -39.5t21.5 -32t32 -21.5t39.5 -8h2q9 0 9 -10v-80q0 -10 -9 -10h-2q-42 0 -78.5 15.5t-63.5 42.5t-43 63.5t-16 78.5v95q0 10 10 10h80q10 0 10 -10v-94z" />
    <glyph glyph-name="edieresis" unicode="&#xeb;" 
d="M250 452q-42 0 -71.5 -26t-27.5 -59h198q0 33 -29.5 59t-69.5 26zM49 175v203q0 70 62.5 122t138.5 52q81 0 141 -55.5t60 -135.5v-84q0 -10 -10 -10h-292v-73q0 -38 31 -66t70 -28t69 28t31 63q1 10 11 10h80q10 0 10 -10q0 -80 -60 -135.5t-141 -55.5
q-76 0 -138.5 53.5t-62.5 121.5zM50 730q0 31 22 53t53 22t53 -22t22 -53t-22 -53t-53 -22t-53 22t-22 53zM300 730q0 31 22 53t53 22t53 -22t22 -53t-22 -53t-53 -22t-53 22t-22 53z" />
    <glyph glyph-name="ecaron" unicode="&#x11b;" 
d="M250 452q-42 0 -71.5 -26t-27.5 -59h198q0 33 -29.5 59t-69.5 26zM49 175v203q0 70 62.5 122t138.5 52q81 0 141 -55.5t60 -135.5v-84q0 -10 -10 -10h-292v-73q0 -38 31 -66t70 -28t69 28t31 63q1 10 11 10h80q10 0 10 -10q0 -80 -60 -135.5t-141 -55.5
q-76 0 -138.5 53.5t-62.5 121.5zM83 772q-2 3 -1 6.5t8 3.5h95q8 0 14 -10l49 -88l52 88q6 10 13 10h95q5 0 7.5 -3t-0.5 -7l-114 -176q-3 -5 -5.5 -7.5t-7.5 -2.5h-77q-5 0 -7.5 2.5t-5.5 7.5z" />
    <glyph glyph-name="iacute" unicode="&#xed;" 
d="M301 100v252q0 80 -55.5 140t-135.5 60h-50q-10 0 -10 -10v-81q0 -10 10 -10h50q38 0 64.5 -30.5t26.5 -68.5v-252h-141q-10 0 -10 -10v-80q0 -10 10 -10h380q10 0 10 10v80q-1 9 -11 10h-138zM300 630q-3 -10 -14 -10h-94q-10 0 -7 10l65 180q3 10 13 10h95q10 0 7 -10z
" />
    <glyph glyph-name="dcaron" unicode="&#x10f;" 
d="M-152 363q1 75 60.5 132.5t140.5 57.5q55 0 100 -27v267q0 10 10 10h80q10 0 10 -10v-783q0 -10 -10 -10h-80q-10 0 -10 10v26q-45 -36 -100 -36q-81 0 -141 55.5t-60 134.5v173zM49 100q44 0 72 25t28 67v175q0 42 -30 64t-70 22q-39 0 -70 -26t-30 -64v-171
q0 -41 29.5 -66.5t69.5 -25.5h1zM554 792q0 10 10 10h80q10 0 10 -10v-95q0 -42 -16 -78.5t-43 -63.5t-63.5 -42.5t-78.5 -15.5h-2q-9 0 -9 10v80q0 10 9 10h2q21 0 39.5 8t32 21.5t21.5 32t8 39.5v94z" />
    <glyph glyph-name="nacute" unicode="&#x144;" 
d="M350 9v348q0 43 -31.5 68t-68.5 25q-39 0 -69.5 -25t-30.5 -65v-351q0 -10 -10 -10h-80q-10 0 -10 10v531q0 10 10 10h80q10 0 10 -10v-17q46 27 100 27q74 0 137 -44.5t63 -121.5v-375q0 -10 -10 -10h-80q-10 0 -10 10zM314 631q-3 -10 -14 -10h-94q-10 0 -7 10l65 180
q3 10 13 10h95q10 0 7 -10z" />
    <glyph glyph-name="ncaron" unicode="&#x148;" 
d="M350 9v348q0 43 -31.5 68t-68.5 25q-39 0 -69.5 -25t-30.5 -65v-351q0 -10 -10 -10h-80q-10 0 -10 10v531q0 10 10 10h80q10 0 10 -10v-17q46 27 100 27q74 0 137 -44.5t63 -121.5v-375q0 -10 -10 -10h-80q-10 0 -10 10zM83 772q-2 3 -1 6.5t8 3.5h95q8 0 14 -10l49 -88
l52 88q6 10 13 10h95q5 0 7.5 -3t-0.5 -7l-114 -176q-3 -5 -5.5 -7.5t-7.5 -2.5h-77q-5 0 -7.5 2.5t-5.5 7.5z" />
    <glyph glyph-name="oacute" unicode="&#xf3;" 
d="M450 190q0 -79 -60 -134.5t-141 -55.5q-80 0 -140 55.5t-60 134.5v1.5v85v84.5q0 79 60 135.5t140 56.5q81 0 141 -57.5t60 -132.5v-173zM250 100q40 0 69.5 25.5t29.5 66.5v171q1 38 -30 64t-70 26q-40 0 -70 -25.5t-30 -66.5v-169q1 -42 28.5 -67t71.5 -25h1zM305 630
q-3 -10 -14 -10h-94q-10 0 -7 10l65 180q3 10 13 10h95q10 0 7 -10z" />
    <glyph glyph-name="ocircumflex" unicode="&#xf4;" 
d="M450 190q0 -79 -60 -134.5t-141 -55.5q-80 0 -140 55.5t-60 134.5v1.5v85v84.5q0 79 60 135.5t140 56.5q81 0 141 -57.5t60 -132.5v-173zM250 100q40 0 69.5 25.5t29.5 66.5v171q1 38 -30 64t-70 26q-40 0 -70 -25.5t-30 -66.5v-169q1 -42 28.5 -67t71.5 -25h1zM198 772
q3 5 5.5 7.5t7.5 2.5h77q5 0 7.5 -2.5t5.5 -7.5l114 -176q3 -5 0.5 -7.5t-7.5 -2.5h-95q-7 0 -13 10l-52 88l-49 -88q-6 -10 -14 -10h-95q-7 0 -8 3.5t1 6.5z" />
    <glyph glyph-name="ohungarumlaut" unicode="&#x151;" 
d="M442 190q0 -79 -60 -134.5t-141 -55.5q-80 0 -140 55.5t-60 134.5v1.5v85v84.5q0 79 60 135.5t140 56.5q81 0 141 -57.5t60 -132.5v-173zM242 100q40 0 69.5 25.5t29.5 66.5v171q1 38 -30 64t-70 26q-40 0 -70 -25.5t-30 -66.5v-169q1 -42 28.5 -67t71.5 -25h1zM212 664
q-3 -10 -14 -10h-94q-10 0 -7 10l65 180q3 10 13 10h95q10 0 7 -10zM392 664q-3 -10 -14 -10h-94q-10 0 -7 10l65 180q3 10 13 10h95q10 0 7 -10z" />
    <glyph glyph-name="odieresis" unicode="&#xf6;" 
d="M450 190q0 -79 -60 -134.5t-141 -55.5q-80 0 -140 55.5t-60 134.5v1.5v85v84.5q0 79 60 135.5t140 56.5q81 0 141 -57.5t60 -132.5v-173zM250 100q40 0 69.5 25.5t29.5 66.5v171q1 38 -30 64t-70 26q-40 0 -70 -25.5t-30 -66.5v-169q1 -42 28.5 -67t71.5 -25h1zM50 730
q0 31 22 53t53 22t53 -22t22 -53t-22 -53t-53 -22t-53 22t-22 53zM300 730q0 31 22 53t53 22t53 -22t22 -53t-22 -53t-53 -22t-53 22t-22 53z" />
    <glyph glyph-name="uacute" unicode="&#xfa;" 
d="M50 540q0 10 10 10h80q10 0 10 -10v-350q0 -39 28.5 -64.5t71.5 -25.5q39 0 69.5 25.5t30.5 64.5v350q0 10 10 10h80q10 0 10 -10v-531q0 -10 -10 -10h-80q-10 0 -10 10v27q-46 -37 -100 -37q-81 0 -140.5 55.5t-59.5 135.5v350zM310 630q-3 -10 -14 -10h-94q-10 0 -7 10
l65 180q3 10 13 10h95q10 0 7 -10z" />
    <glyph glyph-name="uhungarumlaut" unicode="&#x171;" 
d="M36 540q0 10 10 10h80q10 0 10 -10v-350q0 -39 28.5 -64.5t71.5 -25.5q39 0 69.5 25.5t30.5 64.5v350q0 10 10 10h80q10 0 10 -10v-531q0 -10 -10 -10h-80q-10 0 -10 10v27q-46 -37 -100 -37q-81 0 -140.5 55.5t-59.5 135.5v350zM217 665q-3 -10 -14 -10h-94q-10 0 -7 10
l65 180q3 10 13 10h95q10 0 7 -10zM397 665q-3 -10 -14 -10h-94q-10 0 -7 10l65 180q3 10 13 10h95q10 0 7 -10z" />
    <glyph glyph-name="udieresis" unicode="&#xfc;" 
d="M50 540q0 10 10 10h80q10 0 10 -10v-350q0 -39 28.5 -64.5t71.5 -25.5q39 0 69.5 25.5t30.5 64.5v350q0 10 10 10h80q10 0 10 -10v-531q0 -10 -10 -10h-80q-10 0 -10 10v27q-46 -37 -100 -37q-81 0 -140.5 55.5t-59.5 135.5v350zM50 730q0 31 22 53t53 22t53 -22t22 -53
t-22 -53t-53 -22t-53 22t-22 53zM300 730q0 31 22 53t53 22t53 -22t22 -53t-22 -53t-53 -22t-53 22t-22 53z" />
    <glyph glyph-name="yacute" unicode="&#xfd;" 
d="M350 26q-46 -27 -100 -27q-73 0 -136.5 58t-63.5 136v350q0 10 10 10h80q10 0 10 -10v-350q0 -42 31 -67.5t69 -25.5q39 0 69.5 25.5t30.5 66.5v351q0 10 10 10h80q10 0 10 -10v-554q-1 -79 -60.5 -134.5t-139.5 -55.5t-138 55.5t-62 134.5q0 10 10 10h80q9 0 10 -10
q4 -38 32.5 -64t67.5 -26t69.5 26t30.5 64v10v27zM309 630q-3 -10 -14 -10h-94q-10 0 -7 10l65 180q3 10 13 10h95q10 0 7 -10z" />
    <glyph glyph-name="Scaron" unicode="&#x160;" 
d="M108 744q59 58 141 58q81 0 139 -55.5t62 -135.5q0 -10 -10 -10h-80q-10 0 -11 10q-4 39 -32.5 65t-67.5 26q-41 0 -70.5 -29.5t-29.5 -70.5q0 -36 23 -63q209 -188 229 -207q49 -48 49 -131t-58.5 -142t-142.5 -59q-80 0 -138 55.5t-62 134.5q0 10 10 10h80q10 0 11 -10
q3 -38 31.5 -64t67.5 -26q50 0 75 27.5t25 64.5q0 17 -1 33t-15 32l-222 199q-62 56 -62 156q0 77 59 132zM83 1021q-2 3 -1 6.5t8 3.5h95q8 0 14 -10l49 -88l52 88q6 10 13 10h95q5 0 7.5 -3t-0.5 -7l-114 -176q-3 -5 -5.5 -7.5t-7.5 -2.5h-77q-5 0 -7.5 2.5t-5.5 7.5z" />
    <glyph glyph-name="Sacute" unicode="&#x15a;" 
d="M108 744q59 58 141 58q81 0 139 -55.5t62 -135.5q0 -10 -10 -10h-80q-10 0 -11 10q-4 39 -32.5 65t-67.5 26q-41 0 -70.5 -29.5t-29.5 -70.5q0 -36 23 -63q209 -188 229 -207q49 -48 49 -131t-58.5 -142t-142.5 -59q-80 0 -138 55.5t-62 134.5q0 10 10 10h80q10 0 11 -10
q3 -38 31.5 -64t67.5 -26q50 0 75 27.5t25 64.5q0 17 -1 33t-15 32l-222 199q-62 56 -62 156q0 77 59 132zM295 878q-3 -10 -14 -10h-94q-10 0 -7 10l65 180q3 10 13 10h95q10 0 7 -10z" />
    <glyph glyph-name="Tcaron" unicode="&#x164;" 
d="M59 802h381q10 0 10 -10v-80q0 -10 -10 -10h-140v-692q0 -10 -10 -10h-81q-10 0 -10 10v692h-140q-10 0 -10 10v80q0 10 10 10zM83 1021q-2 3 -1 6.5t8 3.5h95q8 0 14 -10l49 -88l52 88q6 10 13 10h95q5 0 7.5 -3t-0.5 -7l-114 -176q-3 -5 -5.5 -7.5t-7.5 -2.5h-77
q-5 0 -7.5 2.5t-5.5 7.5z" />
    <glyph glyph-name="Zcaron" unicode="&#x17d;" 
d="M443 802q10 0 6 -10l-251 -692h242q10 0 10 -10v-80q0 -10 -10 -10h-384q-10 0 -6 10l251 692h-242q-10 0 -10 10v80q0 10 10 10h384zM83 1021q-2 3 -1 6.5t8 3.5h95q8 0 14 -10l49 -88l52 88q6 10 13 10h95q5 0 7.5 -3t-0.5 -7l-114 -176q-3 -5 -5.5 -7.5t-7.5 -2.5h-77
q-5 0 -7.5 2.5t-5.5 7.5z" />
    <glyph glyph-name="Zacute" unicode="&#x179;" 
d="M443 802q10 0 6 -10l-251 -692h242q10 0 10 -10v-80q0 -10 -10 -10h-384q-10 0 -6 10l251 692h-242q-10 0 -10 10v80q0 10 10 10h384zM305 878q-3 -10 -14 -10h-94q-10 0 -7 10l65 180q3 10 13 10h95q10 0 7 -10z" />
    <glyph glyph-name="zcaron" unicode="&#x17e;" 
d="M206 100h235q10 0 10 -11v-80q0 -10 -10 -10h-383q-10 0 -6 7l234 444h-225q-10 0 -10 10v80q0 10 10 10h373q10 0 7 -7zM83 772q-2 3 -1 6.5t8 3.5h95q8 0 14 -10l49 -88l52 88q6 10 13 10h95q5 0 7.5 -3t-0.5 -7l-114 -176q-3 -5 -5.5 -7.5t-7.5 -2.5h-77
q-5 0 -7.5 2.5t-5.5 7.5z" />
    <glyph glyph-name="zacute" unicode="&#x17a;" 
d="M206 100h235q10 0 10 -11v-80q0 -10 -10 -10h-383q-10 0 -6 7l234 444h-225q-10 0 -10 10v80q0 10 10 10h373q10 0 7 -7zM305 630q-3 -10 -14 -10h-94q-10 0 -7 10l65 180q3 10 13 10h95q10 0 7 -10z" />
    <glyph glyph-name="scaron" unicode="&#x161;" 
d="M440 253q10 -4 10 -14v-87q-10 -33 -29.5 -61t-46 -48t-58.5 -31.5t-66 -11.5q-39 0 -75.5 15t-64 40.5t-44.5 60.5t-17 75q0 10 10 10h80q10 0 10 -10q4 -39 33 -64.5t68 -25.5q18 0 35 6.5t30.5 18t22 27t11.5 33.5l-290 105q-10 4 -10 14v80q4 36 23 65.5t47 50t62 32
t69 11.5q39 0 74.5 -15t63.5 -41.5t45 -61t17 -73.5q0 -10 -10 -10h-81q-9 0 -10 10q-3 39 -31.5 64.5t-67.5 25.5q-18 0 -35 -6.5t-30.5 -18t-23 -26.5t-12.5 -33zM83 772q-2 3 -1 6.5t8 3.5h95q8 0 14 -10l49 -88l52 88q6 10 13 10h95q5 0 7.5 -3t-0.5 -7l-114 -176
q-3 -5 -5.5 -7.5t-7.5 -2.5h-77q-5 0 -7.5 2.5t-5.5 7.5z" />
    <glyph glyph-name="icircumflex" unicode="&#xee;" 
d="M301 100v252q0 80 -55.5 140t-135.5 60h-50q-10 0 -10 -10v-81q0 -10 10 -10h50q38 0 64.5 -30.5t26.5 -68.5v-252h-141q-10 0 -10 -10v-80q0 -10 10 -10h380q10 0 10 10v80q-1 9 -11 10h-138zM198 772q3 5 5.5 7.5t7.5 2.5h77q5 0 7.5 -2.5t5.5 -7.5l114 -176
q3 -5 0.5 -7.5t-7.5 -2.5h-95q-7 0 -13 10l-52 88l-49 -88q-6 -10 -14 -10h-95q-7 0 -8 3.5t1 6.5z" />
    <glyph glyph-name="Ograve" unicode="&#xd2;" 
d="M450 190q0 -79 -60 -134.5t-141 -55.5q-80 0 -140 55.5t-60 134.5v1.5v209.5v209q0 79 60 135.5t140 56.5q81 0 141 -57.5t60 -132.5v-422zM250 100q40 0 69.5 25.5t29.5 66.5v420q1 38 -30 64t-70 26q-40 0 -70 -25.5t-30 -66.5v-418q1 -42 28.5 -67t71.5 -25h1z
M182 881l-65 180q-3 10 7 10h95q10 0 13 -10l65 -180q3 -10 -7 -10h-94q-11 0 -14 10z" />
    <glyph glyph-name="ograve" unicode="&#xf2;" 
d="M450 190q0 -79 -60 -134.5t-141 -55.5q-80 0 -140 55.5t-60 134.5v1.5v85v84.5q0 79 60 135.5t140 56.5q81 0 141 -57.5t60 -132.5v-173zM250 100q40 0 69.5 25.5t29.5 66.5v171q1 38 -30 64t-70 26q-40 0 -70 -25.5t-30 -66.5v-169q1 -42 28.5 -67t71.5 -25h1zM186 630
l-65 180q-3 10 7 10h95q10 0 13 -10l65 -180q3 -10 -7 -10h-94q-11 0 -14 10z" />
    <glyph glyph-name="otilde" unicode="&#xf5;" 
d="M450 190q0 -79 -60 -134.5t-141 -55.5q-80 0 -140 55.5t-60 134.5v1.5v85v84.5q0 79 60 135.5t140 56.5q81 0 141 -57.5t60 -132.5v-173zM250 100q40 0 69.5 25.5t29.5 66.5v171q1 38 -30 64t-70 26q-40 0 -70 -25.5t-30 -66.5v-169q1 -42 28.5 -67t71.5 -25h1zM222 707
q-32 17 -48 7t-36 -46l-1 -2q-5 -9 -14 -4l-70 39q-8 3 -4 13l1 1q20 36 39.5 61t43.5 36t53.5 8.5t70.5 -20.5l18 -8q23 -10 42 -3t39 44l2 3q4 8 13 4l74 -40q9 -5 3 -13l-2 -4q-38 -78 -89 -96.5t-120 13.5z" />
    <glyph glyph-name="Otilde" unicode="&#xd5;" 
d="M450 190q0 -79 -60 -134.5t-141 -55.5q-80 0 -140 55.5t-60 134.5v1.5v209.5v209q0 79 60 135.5t140 56.5q81 0 141 -57.5t60 -132.5v-422zM250 100q40 0 69.5 25.5t29.5 66.5v420q1 38 -30 64t-70 26q-40 0 -70 -25.5t-30 -66.5v-418q1 -42 28.5 -67t71.5 -25h1z
M222 953q-32 17 -48 7t-36 -46l-1 -2q-5 -9 -14 -4l-70 39q-8 3 -4 13l1 1q20 36 39.5 61t43.5 36t53.5 8.5t70.5 -20.5l18 -8q23 -10 42 -3t39 44l2 3q4 8 13 4l74 -40q9 -5 3 -13l-2 -4q-38 -78 -89 -96.5t-120 13.5z" />
    <glyph glyph-name="Ntilde" unicode="&#xd1;" 
d="M49 10v782q0 10 10 10h80q8 0 10 -8l201 -513v511q0 10 10 10h80q10 0 10 -10v-782q0 -10 -10 -10h-80q-7 0 -10 7l-201 511v-508q0 -10 -10 -10h-80q-10 0 -10 10zM222 953q-32 17 -48 7t-36 -46l-1 -2q-5 -9 -14 -4l-70 39q-8 3 -4 13l1 1q20 36 39.5 61t43.5 36
t53.5 8.5t70.5 -20.5l18 -8q23 -10 42 -3t39 44l2 3q4 8 13 4l74 -40q9 -5 3 -13l-2 -4q-38 -78 -89 -96.5t-120 13.5z" />
    <glyph glyph-name="ntilde" unicode="&#xf1;" 
d="M350 9v348q0 43 -31.5 68t-68.5 25q-39 0 -69.5 -25t-30.5 -65v-351q0 -10 -10 -10h-80q-10 0 -10 10v531q0 10 10 10h80q10 0 10 -10v-17q46 27 100 27q74 0 137 -44.5t63 -121.5v-375q0 -10 -10 -10h-80q-10 0 -10 10zM222 707q-32 17 -48 7t-36 -46l-1 -2
q-5 -9 -14 -4l-70 39q-8 3 -4 13l1 1q20 36 39.5 61t43.5 36t53.5 8.5t70.5 -20.5l18 -8q23 -10 42 -3t39 44l2 3q4 8 13 4l74 -40q9 -5 3 -13l-2 -4q-38 -78 -89 -96.5t-120 13.5z" />
    <glyph glyph-name="Idieresis" unicode="&#xcf;" 
d="M60 800h380q10 0 10 -10v-80q0 -10 -10 -10h-140v-600h140q10 0 10 -10v-80q0 -10 -10 -10h-380q-10 0 -10 10v80q0 10 10 10h140v600h-140q-10 0 -10 10v80q0 10 10 10zM50 977q0 31 22 53t53 22t53 -22t22 -53t-22 -53t-53 -22t-53 22t-22 53zM300 977q0 31 22 53
t53 22t53 -22t22 -53t-22 -53t-53 -22t-53 22t-22 53z" />
    <glyph glyph-name="idieresis" unicode="&#xef;" 
d="M301 100v252q0 80 -55.5 140t-135.5 60h-50q-10 0 -10 -10v-81q0 -10 10 -10h50q38 0 64.5 -30.5t26.5 -68.5v-252h-141q-10 0 -10 -10v-80q0 -10 10 -10h380q10 0 10 10v80q-1 9 -11 10h-138zM50 722q0 31 22 53t53 22t53 -22t22 -53t-22 -53t-53 -22t-53 22t-22 53z
M300 722q0 31 22 53t53 22t53 -22t22 -53t-22 -53t-53 -22t-53 22t-22 53z" />
    <glyph glyph-name="igrave" unicode="&#xec;" 
d="M301 100v252q0 80 -55.5 140t-135.5 60h-50q-10 0 -10 -10v-81q0 -10 10 -10h50q38 0 64.5 -30.5t26.5 -68.5v-252h-141q-10 0 -10 -10v-80q0 -10 10 -10h380q10 0 10 10v80q-1 9 -11 10h-138zM175 628l-65 180q-3 10 7 10h95q10 0 13 -10l65 -180q3 -10 -7 -10h-94
q-11 0 -14 10z" />
    <glyph glyph-name="Igrave" unicode="&#xcc;" 
d="M60 800h380q10 0 10 -10v-80q0 -10 -10 -10h-140v-600h140q10 0 10 -10v-80q0 -10 -10 -10h-380q-10 0 -10 10v80q0 10 10 10h140v600h-140q-10 0 -10 10v80q0 10 10 10zM186 879l-65 180q-3 10 7 10h95q10 0 13 -10l65 -180q3 -10 -7 -10h-94q-11 0 -14 10z" />
    <glyph glyph-name="Egrave" unicode="&#xc8;" 
d="M149 450h240q10 0 10 -10v-80q0 -10 -10 -10h-240v-250h292q10 0 10 -10v-80q0 -10 -10 -10h-382q-10 0 -10 10v778q0 10 10 10h382q10 0 10 -10v-78q0 -10 -10 -10h-292v-250zM206 877l-65 180q-3 10 7 10h95q10 0 13 -10l65 -180q3 -10 -7 -10h-94q-11 0 -14 10z" />
    <glyph glyph-name="egrave" unicode="&#xe8;" 
d="M250 452q-42 0 -71.5 -26t-27.5 -59h198q0 33 -29.5 59t-69.5 26zM49 175v203q0 70 62.5 122t138.5 52q81 0 141 -55.5t60 -135.5v-84q0 -10 -10 -10h-292v-73q0 -38 31 -66t70 -28t69 28t31 63q1 10 11 10h80q10 0 10 -10q0 -80 -60 -135.5t-141 -55.5
q-76 0 -138.5 53.5t-62.5 121.5zM196 628l-65 180q-3 10 7 10h95q10 0 13 -10l65 -180q3 -10 -7 -10h-94q-11 0 -14 10z" />
    <glyph glyph-name="Agrave" unicode="&#xc0;" 
d="M201 200h100q11 0 9 11l-50 257q-2 7 -10 7t-9 -7l-50 -257q-1 -11 10 -11zM333 93q-2 7 -9 7h-147q-7 0 -9 -7l-16 -83q-2 -10 -11 -10h-84q-9 0 -6 13l151 779q2 9 10 9h77q8 0 10 -9l151 -779q2 -13 -7 -13h-83q-9 0 -11 10zM194 881l-65 180q-3 10 7 10h95
q10 0 13 -10l65 -180q3 -10 -7 -10h-94q-11 0 -14 10z" />
    <glyph glyph-name="agrave" unicode="&#xe0;" 
d="M350 194v164q0 44 -27.5 71t-72.5 27q-39 0 -70 -27t-31 -68v-167q0 -42 31 -69t70 -27q37 0 68.5 26.5t31.5 69.5zM350 542q0 10 10 10h81q10 0 10 -10v-532q0 -10 -10 -10h-81q-10 0 -10 10v17q-46 -27 -100 -27q-80 0 -140.5 54t-60.5 132v180q0 87 62.5 136.5
t138.5 49.5q54 0 100 -27v17zM196 631l-65 180q-3 10 7 10h95q10 0 13 -10l65 -180q3 -10 -7 -10h-94q-11 0 -14 10z" />
    <glyph glyph-name="Ugrave" unicode="&#xd9;" 
d="M350 193v599q0 10 10 10h80q10 0 10 -10v-603q0 -79 -60.5 -134t-140.5 -55q-81 0 -140.5 56t-59.5 134v602q0 10 10 10h80q10 0 10 -10l1 -602q0 -32 28.5 -61t70.5 -29q44 -1 72.5 28.5t28.5 64.5zM194 877l-65 180q-3 10 7 10h95q10 0 13 -10l65 -180q3 -10 -7 -10
h-94q-11 0 -14 10z" />
    <glyph glyph-name="ugrave" unicode="&#xf9;" 
d="M50 540q0 10 10 10h80q10 0 10 -10v-350q0 -39 28.5 -64.5t71.5 -25.5q39 0 69.5 25.5t30.5 64.5v350q0 10 10 10h80q10 0 10 -10v-531q0 -10 -10 -10h-80q-10 0 -10 10v27q-46 -37 -100 -37q-81 0 -140.5 55.5t-59.5 135.5v350zM203 628l-65 180q-3 10 7 10h95
q10 0 13 -10l65 -180q3 -10 -7 -10h-94q-11 0 -14 10z" />
    <glyph glyph-name="Atilde" unicode="&#xc3;" 
d="M201 200h100q11 0 9 11l-50 257q-2 7 -10 7t-9 -7l-50 -257q-1 -11 10 -11zM333 93q-2 7 -9 7h-147q-7 0 -9 -7l-16 -83q-2 -10 -11 -10h-84q-9 0 -6 13l151 779q2 9 10 9h77q8 0 10 -9l151 -779q2 -13 -7 -13h-83q-9 0 -11 10zM222 953q-32 17 -48 7t-36 -46l-1 -2
q-5 -9 -14 -4l-70 39q-8 3 -4 13l1 1q20 36 39.5 61t43.5 36t53.5 8.5t70.5 -20.5l18 -8q23 -10 42 -3t39 44l2 3q4 8 13 4l74 -40q9 -5 3 -13l-2 -4q-38 -78 -89 -96.5t-120 13.5z" />
    <glyph glyph-name="atilde" unicode="&#xe3;" 
d="M350 194v164q0 44 -27.5 71t-72.5 27q-39 0 -70 -27t-31 -68v-167q0 -42 31 -69t70 -27q37 0 68.5 26.5t31.5 69.5zM350 542q0 10 10 10h81q10 0 10 -10v-532q0 -10 -10 -10h-81q-10 0 -10 10v17q-46 -27 -100 -27q-80 0 -140.5 54t-60.5 132v180q0 87 62.5 136.5
t138.5 49.5q54 0 100 -27v17zM222 704q-32 17 -48 7t-36 -46l-1 -2q-5 -9 -14 -4l-70 39q-8 3 -4 13l1 1q20 36 39.5 61t43.5 36t53.5 8.5t70.5 -20.5l18 -8q23 -10 42 -3t39 44l2 3q4 8 13 4l74 -40q9 -5 3 -13l-2 -4q-38 -78 -89 -96.5t-120 13.5z" />
    <glyph glyph-name="cent" unicode="&#xa2;" 
d="M200 668q0 10 10 10h80q10 0 10 -10v-122q49 -12 89 -50q58 -55 62 -135q0 -10 -10 -10h-80q-10 0 -11 10q-1 39 -31 65q-9 8 -19 13v-327q10 6 19 14q30 26 31 65q1 10 11 10h80q10 0 10 -10q-4 -80 -62 -136q-40 -37 -89 -49v-116q0 -10 -10 -10h-80q-10 0 -10 11v114
q-44 10 -81 39q-57 44 -70 124v217q12 74 69 120q38 30 82 41v122zM177 426q-28 -26 -28 -68v-164q0 -42 31 -68q10 -8 20 -14v329q-13 -6 -23 -15z" />
    <glyph glyph-name="Ydieresis" unicode="&#x178;" 
d="M250 559l85 233q3 10 13 10h95q10 0 7 -10l-150 -411v-371q0 -10 -10 -10h-80q-10 0 -10 10v371l-150 411q-4 10 6 10h95q10 0 14 -10zM50 975q0 31 22 53t53 22t53 -22t22 -53t-22 -53t-53 -22t-53 22t-22 53zM300 975q0 31 22 53t53 22t53 -22t22 -53t-22 -53t-53 -22
t-53 22t-22 53z" />
    <glyph glyph-name="ydieresis" unicode="&#xff;" 
d="M350 26q-46 -27 -100 -27q-73 0 -136.5 58t-63.5 136v350q0 10 10 10h80q10 0 10 -10v-350q0 -42 31 -67.5t69 -25.5q39 0 69.5 25.5t30.5 66.5v351q0 10 10 10h80q10 0 10 -10v-554q-1 -79 -60.5 -134.5t-139.5 -55.5t-138 55.5t-62 134.5q0 10 10 10h80q9 0 10 -10
q4 -38 32.5 -64t67.5 -26t69.5 26t30.5 64v10v27zM50 730q0 31 22 53t53 22t53 -22t22 -53t-22 -53t-53 -22t-53 22t-22 53zM300 730q0 31 22 53t53 22t53 -22t22 -53t-22 -53t-53 -22t-53 22t-22 53z" />
    <glyph glyph-name="glyph237" 
d="M-263 389q0 57 22 107.5t59.5 88t88.5 59.5t108 22q58 0 108.5 -22t88 -59.5t59.5 -88t22 -107.5v-115q0 -58 -22 -108.5t-59.5 -88.5t-88 -60t-108.5 -22q-57 0 -108 22t-88.5 60t-59.5 88.5t-22 108.5v115zM-162 271q0 -36 14 -68t38 -56t56 -37.5t69 -13.5t69 13.5
t56 37.5t38 56t14 68v123q0 36 -14 68t-38 56t-56 37.5t-69 13.5t-69 -13.5t-56 -37.5t-38 -56t-14 -68v-123zM15 227q31 0 54.5 20.5t24.5 51.5q1 8 8 8h64q8 0 8 -8q-4 -63 -49.5 -107t-109.5 -44q-59 0 -104 35t-55 98v96v5q9 59 54.5 95.5t104.5 36.5q64 0 109.5 -44
t49.5 -107q0 -8 -8 -8h-64q-7 0 -8 8q-1 31 -24.5 51.5t-55.5 20.5q-35 0 -57 -20.5t-22 -53.5v-60q0 -33 25 -53.5t55 -20.5zM537 83q38 0 66.5 26t32.5 64q1 10 11 10h80q10 0 10 -10q-4 -80 -62 -135t-138 -55t-138 55t-62 135v1.5v416.5v2q4 79 62 134.5t138 55.5
t138 -55.5t62 -134.5q0 -10 -10 -10h-80q-10 0 -11 10q-4 38 -32.5 64t-66.5 26q-41 0 -67 -25.5t-33 -66.5v-417q0 -1 2 -20t30.5 -45t67.5 -26zM605 288q31 0 54.5 20.5t24.5 51.5q1 8 8 8h64q8 0 8 -8q-4 -63 -49.5 -107t-109.5 -44q-59 0 -104 35t-55 98v96v5
q9 59 54.5 95.5t104.5 36.5q64 0 109.5 -44t49.5 -107q0 -8 -8 -8h-64q-7 0 -8 8q-1 31 -24.5 51.5t-55.5 20.5q-35 0 -57 -20.5t-22 -53.5v-60q0 -33 25 -53.5t55 -20.5z" />
  </font>
</defs>
</svg>
